<?xml version="1.0" standalone="no"?>
<!DOCTYPE svg PUBLIC "-//W3C//DTD SVG 1.1//EN" "http://www.w3.org/Graphics/SVG/1.1/DTD/svg11.dtd" >
<svg>
<metadata>
Created by FontForge 20090622 at Sun Nov 25 16:57:16 2018
 By ffonts
Copyright [c] - Roger White - 1993 - All rights reserved - see .txt file for terms for distribution and use.
</metadata>
<defs>
<font id="QueensPark" horiz-adv-x="500" >
  <font-face 
    font-family="Queens Park"
    font-weight="400"
    font-stretch="normal"
    units-per-em="1000"
    panose-1="2 2 5 0 0 0 0 0 0 0"
    ascent="800"
    descent="-200"
    x-height="459"
    cap-height="692"
    bbox="-63 -282 1158 890"
    underline-thickness="50"
    underline-position="-50"
    unicode-range="U+0020-U+2122"
  />
<missing-glyph horiz-adv-x="502" 
d="M-1 0h500v500h-500v-500zM9 10v480h480v-480h-480z" />
    <glyph glyph-name=".notdef" horiz-adv-x="502" 
d="M-1 0h500v500h-500v-500zM9 10v480h480v-480h-480z" />
    <glyph glyph-name="space" unicode=" " horiz-adv-x="250" 
 />
    <glyph glyph-name="space" unicode="&#xa0;" horiz-adv-x="250" 
 />
    <glyph glyph-name="exclam" unicode="!" horiz-adv-x="278" 
d="M162 688l-36 -21q-17 -7 -39 -18q-1 -4 -1 -17v-17l3 -76l2 -41l16 -155l9 -75q0 -5 1 -13q3 -28 4 -34q1 -13 1 -37l10 -5l27 26l2 50l6 61l13 132l9 73q1 22 3 31q1 5 1 28l2 54l2 54h-35zM138 101q-23 0 -40 -17t-17 -40q0 -22 17 -41q17 -16 40 -16t40 17t17 40
q0 16 -7 29q-9 14 -22 21t-28 7z" />
    <glyph glyph-name="quotedbl" unicode="&#x22;" horiz-adv-x="371" 
d="M89 402q0 -6 5 -11t10 -5q6 2 10 7q5 5 5 14l18 228l1 7v12v12q0 17 -9 26t-24 9q-32 0 -32 -47l1 -29zM249 402q0 -16 15 -16t15 21l18 228l1 7v12v12q0 35 -33 35q-32 0 -32 -47l1 -29z" />
    <glyph glyph-name="numbersign" unicode="#" horiz-adv-x="606" 
d="M529 276h-105l22 151h109v50h-102l31 211h-50l-31 -211h-152l31 211h-49l-32 -211h-122v-50h115l-23 -151h-120v-50h112l-34 -226h50l34 226h152l-32 -226h50l33 226h113v50zM396 427l-23 -151h-152l22 151h153z" />
    <glyph glyph-name="dollar" unicode="$" 
d="M74 191h-30l-2 -45l-3 -41l-5 -30l-6 -32q11 -5 15 -6q13 -6 18 -8q12 -5 31 -10q8 -3 17 -6l15 -3q9 -1 16 -3q2 0 6 -1q5 0 7 -1l34 -3q9 0 18 -1h19l-3 -51v-25q-1 -11 -1 -24h43l-1 53l-1 49l33 8l14 3q18 5 30 9q31 13 52 30q42 35 63 79q20 45 20 101q0 47 -18 77
q-18 29 -48 45q-32 18 -62 22q-21 5 -84 14v259q54 -6 69 -13q23 -10 48 -33l8 -87h29q0 22 1 32q1 7 1 15t1 15q4 22 6 32q1 10 5 28l-3 7q-37 21 -71 28q-23 7 -31 8q-12 3 -21 3q-5 1 -10 1q-6 0 -11 1h-21l4 64h-43l2 -67q-57 -10 -101 -36t-68 -69q-25 -43 -25 -100
q0 -16 1 -23q1 -5 1 -10q1 -8 1 -10q5 -20 10 -35q17 -32 41 -48q26 -17 58 -24q20 -5 38 -8l44 -6v-278q-8 0 -24 2q-8 1 -22 3q-21 4 -38 12q-34 16 -64 46zM261 40v271q79 -17 105 -41q26 -26 26 -79q0 -66 -33 -102q-31 -35 -98 -49zM224 649v-254q-46 9 -70 22
q-26 13 -37 37q-10 21 -10 59q0 60 31 94q30 34 86 42z" />
    <glyph glyph-name="percent" unicode="%" horiz-adv-x="840" 
d="M629 700q-39 -28 -73 -47q-3 -1 -8 -4q-6 -3 -9 -4q-2 -1 -3 -1q-9 -4 -10 -5q-13 -6 -26 -9q-24 -6 -54 -6q-55 0 -78 24q-24 27 -67 27q-52 0 -95 -31q-45 -31 -71 -82q-26 -50 -26 -104q0 -37 17 -71q16 -33 45 -51q29 -17 62 -17q21 0 46 11q24 11 39 27l3 3
q9 11 13 15q4 5 11 17q2 3 3 4q16 22 27 47q25 52 25 86q0 15 -3 34q-3 20 -3 29q33 -6 51 -6q54 0 119 32l-397 -666h55l447 748h-40zM307 634q15 -14 23 -18q11 -7 21 -11q6 -8 11 -24q3 -13 3 -29q0 -33 -14 -81q-16 -48 -43 -80q-28 -34 -65 -34q-22 0 -37 17
q-15 18 -15 43q0 23 9 62q8 38 23 72q9 20 18 33q8 14 18 24q25 26 48 26zM441 123q0 -29 9 -56q10 -25 27 -43q34 -37 87 -37q42 0 82 32q39 32 62 85q22 51 22 114q0 56 -27 89q-27 32 -73 32q-51 0 -95 -32q-44 -31 -69 -82q-25 -48 -25 -102zM523 89q0 34 15 86
q13 50 41 89q25 37 61 37q26 0 41 -23q15 -22 15 -62q0 -33 -15 -80q-17 -49 -43 -79q-29 -32 -66 -32q-22 0 -36 17q-13 19 -13 47z" />
    <glyph glyph-name="ampersand" unicode="&#x26;" horiz-adv-x="778" 
d="M425 355l3 -8h21l35 -1l23 -4q18 -6 24 -20q6 -13 6 -46q0 -36 -12 -65q-12 -30 -37 -60q-43 40 -75 76q-33 36 -69 86q-31 44 -58 95q55 39 81 68q15 15 28 33q12 16 19 32q15 32 15 69q0 25 -11 49q-10 20 -31 31q-20 11 -46 11q-20 0 -33 -4q-16 -4 -28 -12
q-28 -20 -63 -52q-25 -22 -34 -45q-9 -22 -9 -63q0 -20 1 -29l3 -18q1 -7 1 -8l9 -32l14 -39q-8 -5 -15 -10l-27 -19q-24 -18 -35 -28q-35 -30 -56 -68q-20 -38 -20 -85q0 -43 15 -81q14 -36 42 -65q9 -9 31 -23t34 -19q39 -14 80 -14q42 0 75 10l34 12q11 4 31 14
q34 21 65 45q51 -41 96 -62q40 -19 79 -19q22 0 40 7q42 36 86 66l-7 23q-23 -15 -35 -19q-8 -4 -21 -4q-82 0 -177 68q46 49 64 87q19 40 19 84l-1 20l-4 23l78 -4l29 -2l33 -5l5 37l6 32l-107 -2l-107 -2l-76 3zM426 94q-67 -49 -122 -49q-47 0 -87 25q-40 26 -61 65
q-22 40 -22 89q0 42 21 75q18 31 64 64q45 -80 94 -145q50 -66 113 -124zM269 442q-13 35 -19 67l-5 24q-1 4 -1 13v15q0 44 17 67t48 23q20 0 35 -19t15 -46q0 -38 -22 -72t-68 -72z" />
    <glyph glyph-name="quotesingle" unicode="'" horiz-adv-x="272" 
d="M21 496l-2 -5l-1 -2q0 -4 9 -4q6 0 14 4t15 11l175 157l24 22q9 9 9 14v3q-4 7 -19 7q-32 0 -65 -33l-18 -20z" />
    <glyph glyph-name="parenleft" unicode="(" horiz-adv-x="333" 
d="M314 -245l-46 64l-1 2q-24 38 -35 58l-12 27q-8 14 -12 28q-49 125 -49 300l2 66l6 66q9 62 26 121q16 54 47 108q28 51 74 105l-21 27q-53 -48 -77 -79q-4 -5 -5 -6q-13 -17 -20 -27l-27 -43q-11 -17 -21 -38q-11 -20 -18 -40l-16 -41l-12 -41q-9 -30 -11 -42
q-3 -16 -6 -42q-6 -37 -6 -87q0 -18 2 -52q2 -31 4 -45q4 -38 16 -89q23 -87 64 -162q34 -57 52 -79q28 -33 78 -83z" />
    <glyph glyph-name="parenright" unicode=")" horiz-adv-x="333" 
d="M19 703q59 -79 93 -150q34 -72 48 -149q1 -3 1 -5q5 -27 6 -39q3 -21 3 -40q0 -9 1 -32l1 -17q0 -10 1 -19q1 -23 1 -28q0 -66 -8 -135q-3 -26 -11 -62l-15 -56q-18 -57 -48 -110q-33 -57 -73 -103l21 -27q110 102 165 222q54 119 54 264q0 55 -7 103q-6 54 -16 91
q-22 89 -69 166q-46 74 -123 150z" />
    <glyph glyph-name="asterisk" unicode="*" horiz-adv-x="389" 
d="M269 353l48 48l-2 8l-100 99q11 1 19 2q14 2 22 3q6 1 24 3l12 2l70 7l9 12q-3 6 -8 14t-8 14q-3 7 -7 15t-7 15l-8 3l-126 -63l13 62l20 76l-8 15q-14 -2 -29 -2h-6h-6h-7h-10h-11l13 -148l-123 71l-16 -4l-18 -67l2 -7l148 -24l-15 -12l-50 -40l-38 -30l-8 -6l-2 -7
l25 -26l20 -25l19 3l72 122l21 -48l39 -86z" />
    <glyph glyph-name="plus" unicode="+" horiz-adv-x="606" 
d="M273 362h-188v-58h188v-190h60v190l188 -1v59h-188v191h-60v-191z" />
    <glyph glyph-name="comma" unicode="," horiz-adv-x="250" 
d="M195 135q-2 -1 -11 -5l-5 -2q-4 -2 -13 -4q-7 -3 -10 -4l-60 -16q-8 -64 -30 -119q-28 -68 -59 -115l15 -15l41 21q98 127 146 244z" />
    <glyph glyph-name="hyphen" unicode="-" horiz-adv-x="334" 
d="M315 274h-268l-27 -77h268z" />
    <glyph glyph-name="period" unicode="." horiz-adv-x="250" 
d="M125 101q-24 0 -41 -17q-16 -16 -16 -40q0 -23 17 -40t40 -17q22 0 40 17q17 17 17 40q0 14 -8 28q-8 15 -21 22t-28 7z" />
    <glyph glyph-name="slash" unicode="/" horiz-adv-x="460" 
d="M159 -15l210 722h-67l-210 -722h67z" />
    <glyph glyph-name="zero" unicode="0" 
d="M32 343q0 -15 3 -59q1 -11 1 -31q3 -45 10 -81q17 -79 61 -131q47 -54 136 -54q95 0 145 65t65 154q15 87 15 189q0 154 -52 230t-157 76q-129 0 -177 -105q-25 -50 -37 -116q-13 -61 -13 -137zM117 356q0 76 8 142q8 63 21 97q19 39 42 55q22 16 59 16q47 0 77 -36
t40 -83l3 -9q3 -14 4 -18q1 -7 4 -22q0 -2 1 -7q3 -18 3 -44l2 -53l2 -52q0 -119 -13 -185q-13 -68 -41 -102q-28 -33 -73 -33q-48 0 -79 34t-46 107l-1 8q-5 22 -7 35q-3 21 -3 42q0 24 -1 38l-1 35q-1 30 -1 35z" />
    <glyph glyph-name="one" unicode="1" 
d="M292 696q-56 -33 -116 -55q-63 -24 -144 -48l2 -25l2 -24q1 -2 3 -4q0 -1 2 -3q7 0 78 38q68 37 84 37q8 0 9 -12l1 -14l1 -15v-7v-7v-10v-452q0 -27 -6 -41q-6 -13 -21 -18q-18 -5 -49 -5l-47 -1v-34l85 2l84 2l85 -2l84 -2v34l-47 1l-24 1l-16 2q-17 5 -24 10
q-8 8 -9 16q-2 10 -2 17l-1 18v594z" />
    <glyph glyph-name="two" unicode="2" 
d="M20 -3l69 1l85 2h84h79h41l38 -1l60 -2l5 3l-1 9q-4 31 -4 36l2 17l3 21l-5 5l-34 -4q-5 0 -10 -1h-11h-13l-45 -1l-57 -1h-179l56 57l53 52l57 58l42 44q3 4 12 14q17 18 25 29q17 20 27 36q22 34 33 68q10 33 10 72q0 55 -26 99t-72 68q-47 23 -107 23l-36 -2l-33 -6
q-32 -8 -59 -24q-27 -17 -49 -41q0 -17 -5 -60l-12 -78h30l20 66q11 24 23 37q15 15 38 22q22 7 61 7q38 0 69 -18q31 -19 49 -51q17 -32 17 -71q0 -33 -9 -65q-9 -30 -27 -61q-18 -32 -49 -70q-42 -51 -76 -86l-169 -176v-27z" />
    <glyph glyph-name="three" unicode="3" 
d="M32 509h30q17 49 31 72q17 26 43 39t71 13q53 0 85 -34q33 -34 33 -87q0 -36 -16 -67q-17 -32 -47 -49q-28 -18 -63 -18l-20 1l-28 2l-10 -56l7 -5q49 25 92 25q40 0 69 -17q27 -17 44 -50q14 -33 14 -75q0 -52 -18 -93q-18 -40 -54 -61q-35 -20 -83 -20q-47 0 -80 18
q-32 19 -50 45q-17 23 -41 78l-27 -12l8 -23l6 -18q7 -22 11 -38q11 -44 14 -67q31 -12 60 -19q26 -6 60 -6q56 0 110 21q51 19 92 55q39 33 62 81q22 46 22 97q0 131 -158 146q8 6 17 15l11 11l2 1l25 24q22 24 36 55q13 27 13 64q0 31 -12 58q-14 29 -38 47q-25 20 -56 29
q-30 10 -71 10q-107 0 -170 -73z" />
    <glyph glyph-name="four" unicode="4" 
d="M154 -4l83 2l82 2l83 -2l83 -2v34l-47 1l-24 1l-16 2q-15 4 -23 9q-9 9 -10 15l-1 2q-1 6 -1 8q-1 3 -1 9v18v85l61 -1l48 -4l-1 14q-1 3 -1 14q-1 3 -1 14l3 30l-27 -3l-27 -1l-55 -1v353l2 39q1 5 1 12t1 12v21v5v6l-14 6q-22 -11 -67 -27l-77 -120l-35 -56l-39 -64
l-72 -119l-31 -53l-30 -53l9 -29l28 2l104 2l135 1v-85q0 -27 -6 -41q-6 -13 -21 -18q-18 -5 -49 -5l-47 -1v-34zM277 590v-349h-58l-24 -1h-26l-103 2l31 56l33 58l66 108q32 53 81 126z" />
    <glyph glyph-name="five" unicode="5" 
d="M12 147l18 -44l10 -20q2 -4 4 -9q1 -3 1 -4q1 -2 1 -4t1 -4q4 -6 5 -12q2 -5 4 -11l7 -24q35 -18 53 -23t51 -5q41 0 75 9q39 10 71 28q67 37 108 101q40 62 40 135q0 56 -26 102q-25 45 -71 69q-45 24 -104 24q-44 0 -76 -12q-34 -11 -68 -39l3 123l5 80l126 2l67 1
l74 -3h36l5 6l-3 19q-1 4 -1 11v9l1 16l3 22l-5 5l-37 -3q-12 0 -24 -1t-24 -1l-63 -2h-39q-92 0 -158 7l-8 -5l4 -34q0 -5 1 -9v-7v-11v-11q1 -5 1 -10v-13v-46q0 -30 -1 -57q0 -8 -1 -16q-1 -36 -1 -52l-3 -94l20 -7q26 33 57 50q31 14 73 14q45 0 80 -20q33 -20 53 -59
q19 -38 19 -87q0 -25 -5 -53q-4 -24 -15 -45q-19 -41 -57 -64q-37 -22 -87 -22q-40 0 -64 7q-28 9 -43 21q-18 15 -33 37q-12 16 -35 59z" />
    <glyph glyph-name="six" unicode="6" 
d="M386 704q-79 -22 -144 -63t-112 -100q-46 -61 -72 -132q-25 -72 -25 -154q0 -61 15 -111q15 -53 43 -86q29 -36 67 -54q40 -17 89 -17q28 0 58 8q23 7 52 25q53 33 81 90q29 58 29 123q0 43 -13 78q-14 38 -34 59q-22 25 -54 37q-31 12 -72 12q-30 0 -59 -12
q-27 -12 -45 -24l-59 -42q5 45 15 84q12 39 30 73q38 68 100 114q60 44 146 67v8zM253 361q37 0 68 -20q29 -19 46 -55q15 -36 15 -86q0 -54 -15 -95q-16 -40 -45 -61q-28 -22 -69 -22q-58 0 -93 54q-35 55 -35 147q0 138 128 138z" />
    <glyph glyph-name="seven" unicode="7" 
d="M76 478l4 44l3 30l4 19q5 23 12 27q9 5 24 6l81 3l47 2h72l87 1l5 -4l-27 -52l-32 -58l-69 -117l-99 -166l-38 -64l-41 -67l-45 -73l8 -13q15 4 25 4h23l46 -2l45 111q20 50 48 107q24 48 35 72l33 64q9 19 30 60l2 3l139 251v29l-43 -5h-36l-35 -1l-50 -1h-104
q-23 0 -44 1q-9 1 -26 1q-18 0 -27 1l-81 3l-9 -9q4 -28 4 -43l1 -52l-2 -59l-1 -53h31z" />
    <glyph glyph-name="eight" unicode="8" 
d="M160 353q-135 -67 -135 -183q0 -53 25 -96q26 -43 72 -65q44 -22 104 -22q45 0 90 17q41 16 76 49q32 31 51 73q18 42 18 90q0 46 -21 77q-20 34 -48 53q-31 21 -79 43v4q58 35 89 75q32 40 32 95q0 39 -23 71t-62 50q-42 17 -89 17q-50 0 -88 -13q-35 -13 -66 -37
q-28 -22 -43 -57q-14 -36 -14 -73q0 -54 29 -95q19 -22 35 -36q20 -17 47 -32v-5zM200 340l74 -34q4 -2 9 -4q4 -2 5 -3q5 -3 6 -3q5 -3 6 -4l25 -17q25 -18 43 -46q16 -25 16 -63q0 -41 -19 -75q-19 -33 -51 -51q-31 -18 -72 -18q-15 0 -32 3q-12 3 -29 8q-29 11 -47 30
q-20 22 -29 48q-7 19 -8 30v3q-2 11 -2 15v16q0 30 7 52q9 27 20 43q27 40 78 70zM275 405l-36 18l-36 19q-29 17 -46 35q-16 16 -24 37q-7 18 -7 40q0 35 16 60q15 25 41 39q25 13 63 13q54 0 86 -32q32 -33 32 -89q0 -45 -21 -80q-23 -35 -68 -60z" />
    <glyph glyph-name="nine" unicode="9" 
d="M102 -16q83 15 151 55q68 41 117 97q48 57 75 132q26 75 26 156q0 132 -56 205q-55 72 -158 72q-48 0 -93 -17q-43 -18 -73 -49q-29 -31 -46 -73q-16 -42 -16 -94q0 -62 23 -110q23 -49 63 -71q20 -13 46 -19t53 -6q22 0 44 9q23 8 41 20l21 13l16 13l39 30
q-7 -53 -21 -97q-18 -51 -42 -86q-4 -7 -15 -19l-1 -2l-15 -18q-18 -18 -36 -33q-39 -30 -53 -38l-7 -4l-4 -3q-3 -1 -13 -6q-8 -4 -26 -10q-22 -8 -73 -20v-10zM114 496q0 78 37 124t97 46q37 0 68 -24q31 -25 47 -66q16 -39 16 -97q0 -24 -4 -41q-3 -20 -10 -38
q-13 -36 -42 -59q-28 -21 -73 -21q-61 0 -99 48q-37 47 -37 128z" />
    <glyph glyph-name="colon" unicode=":" horiz-adv-x="250" 
d="M125 101q-24 0 -41 -17q-16 -16 -16 -40q0 -23 17 -40t40 -17q22 0 40 17q17 17 17 40q0 14 -8 28q-8 15 -21 22t-28 7zM125 459q-24 0 -41 -17q-16 -16 -16 -40q0 -22 16 -40q18 -17 41 -17t41 17q16 16 16 40t-16 40q-18 17 -41 17z" />
    <glyph glyph-name="semicolon" unicode=";" horiz-adv-x="250" 
d="M196 135l-41 -15l-59 -16q-7 -45 -18 -85q-11 -36 -29 -75l-20 -38l-22 -40l15 -11l41 21q46 58 83 118q36 59 63 126zM143 459q-22 0 -39 -17q-18 -16 -18 -40q0 -23 17 -40t40 -17q24 0 41 17q16 16 16 40q0 14 -8 28q-8 15 -21 22t-28 7z" />
    <glyph glyph-name="less" unicode="&#x3c;" horiz-adv-x="606" 
d="M563 139l-437 203l437 205v62l-520 -238v-56l520 -238v62z" />
    <glyph glyph-name="equal" unicode="=" horiz-adv-x="606" 
d="M516 429h-426v-63h426v63zM516 290h-426v-63h426v63z" />
    <glyph glyph-name="greater" unicode="&#x3e;" horiz-adv-x="606" 
d="M42 139v-62l521 238v56l-521 238v-62l438 -205z" />
    <glyph glyph-name="question" unicode="?" horiz-adv-x="444" 
d="M47 549l3 -6l25 -3q16 36 43 76q34 17 62 17l26 -2l23 -6q24 -9 42 -23q16 -15 25 -34t9 -42q0 -37 -21 -72q-8 -13 -26 -37q-15 -21 -33 -42q-39 -42 -57 -69q-17 -29 -17 -60q0 -26 10 -42q10 -14 15 -19q7 -8 20 -18l21 15q-13 15 -18 28q-5 12 -5 22q0 43 52 89
l79 74q38 35 55 70q18 35 18 75q0 47 -23 85q-24 37 -65 57q-41 19 -99 19q-35 0 -65 -9q-20 -5 -31 -11q-20 -10 -30 -16zM199 101q-22 0 -39 -17q-18 -16 -18 -40q0 -22 17 -41q18 -16 40 -16q23 0 40 17t17 40q0 16 -7 29q-9 14 -22 21t-28 7z" />
    <glyph glyph-name="at" unicode="@" horiz-adv-x="747" 
d="M661 184q-34 -51 -70 -84t-86 -53q-47 -19 -102 -19q-92 0 -166 40q-75 40 -118 113q-42 72 -42 162q0 67 24 125q23 58 66 101q43 44 99 68q58 23 123 23q28 0 56 -5q24 -4 54 -14q53 -20 90 -53q38 -34 59 -78q13 -26 17 -46q5 -25 5 -50q0 -35 -13 -77
q-12 -45 -36 -82q-26 -40 -55 -61q-32 -23 -67 -23q-28 0 -28 33l1 10l3 13q2 6 2 10l72 271h-69l-16 -61q-21 70 -89 70q-52 0 -102 -33q-52 -35 -80 -85q-29 -52 -29 -107q0 -63 39 -104q38 -42 92 -42q34 0 61 18q26 15 55 55q11 -80 79 -80q24 0 63 17q36 16 68 45
q29 27 50 59q22 34 32 72q10 36 10 83q0 62 -27 116q-30 55 -73 91q-46 38 -104 59q-60 20 -118 20q-75 0 -140 -28q-65 -27 -114 -77q-49 -49 -76 -114q-14 -35 -20 -66q-7 -31 -7 -72q0 -40 7 -72q9 -41 20 -68q27 -65 77 -115q49 -49 114 -76q66 -26 140 -26q58 0 103 13
q46 13 85 39q38 25 73 63t57 82h-49zM442 406q0 -23 -4 -43q-1 -6 -4 -17l-1 -5l-6 -21q-12 -41 -31 -75q-3 -4 -4 -6q-11 -17 -16 -24q-7 -9 -22 -21q-22 -19 -47 -19q-32 0 -53 27q-22 26 -22 68q0 13 1 21q0 4 2 12q1 6 2 10q4 17 14 48q23 53 57 90q35 36 75 36
q32 0 46 -23q13 -22 13 -58z" />
    <glyph glyph-name="A" unicode="A" horiz-adv-x="778" 
d="M494 -4l61 2l71 2l72 -2l60 -2v34l-21 1l-17 2q-10 3 -14 6q-15 12 -21 20l-15 30l-13 33l-246 575h-34l-20 -53l-25 -60l-28 -63l-134 -304l-27 -60l-24 -52l-22 -45q-12 -20 -29 -25q-18 -5 -49 -5v-34l114 4l58 -2l57 -2v34l-65 5q-19 0 -19 22q0 15 12 46q9 27 27 68
l27 60h282l54 -136q15 -36 15 -45q0 -13 -11 -16q-10 -3 -28 -3l-48 -1v-34zM248 271l123 294l123 -294h-246z" />
    <glyph glyph-name="B" unicode="B" horiz-adv-x="611" 
d="M376 390q59 20 94 43q37 25 53 57q16 31 16 75q0 69 -56 98t-130 29l-31 -1h-30l-63 -2l-61 -1l-101 3l-42 1v-34l43 -1q6 0 16 -2q3 -1 9 -2q4 -2 5 -2q11 -4 18 -18q6 -13 6 -40v-498q0 -24 -2 -40q-5 -12 -11 -17q-9 -7 -33 -20v-22l92 4h38l47 -2l38 -1q83 0 147 30
q64 28 101 82q35 53 35 120q0 50 -21 84q-22 35 -66 54q-3 1 -4 2q-29 11 -42 14q-19 4 -34 6q-10 1 -31 1zM213 46l2 15v12l-1 58l-1 58v173q30 2 56 2q92 0 147 -31t55 -119q0 -55 -21 -94q-22 -40 -63 -60q-40 -21 -97 -21q-34 0 -77 7zM213 404v61l1 83l2 52l3 45l10 2
q5 0 10 1h3q11 2 15 2l36 2q147 0 147 -114q0 -72 -44 -104t-139 -32z" />
    <glyph glyph-name="C" unicode="C" horiz-adv-x="709" 
d="M628 515h32q0 48 7 83q8 38 19 65l-76 16q-38 9 -86 16q-40 6 -74 6q-44 0 -88 -6q-46 -8 -82 -19q-80 -28 -131 -73q-52 -46 -81 -114q-28 -66 -28 -148q0 -75 30 -143q30 -66 83 -113q56 -48 128 -73t159 -25q22 0 31 1q7 1 15 1q11 1 14 1l8 1l48 9q55 15 115 44l6 15
l6 14l7 17l-10 9q-83 -62 -222 -62q-88 0 -161 43q-73 44 -113 117q-41 74 -41 165q0 68 21 123q21 56 59 95q38 38 91 59q55 20 122 20q35 0 65 -6q4 -1 17 -4q9 -1 15 -3l30 -11q32 -13 61 -33z" />
    <glyph glyph-name="D" unicode="D" horiz-adv-x="774" 
d="M70 -4l44 2l40 2l38 1l83 -2l30 -1l32 -2q87 0 162 28q74 28 127 79q54 51 82 121q16 35 22 74q3 14 5 38t2 41q0 150 -97 234q-34 30 -71 47q-42 19 -87 26q-9 2 -27 4t-26 2q-23 0 -33 1q-11 1 -27 1l-107 -2l-100 -2l-71 2l-42 1l-30 1v-34l44 -1q6 0 16 -2l8 -2l5 -2
q12 -4 18 -18q6 -13 6 -40v-498q0 -28 -3 -39q-3 -14 -10 -18q-5 -5 -33 -20v-22zM214 48l-5 105l-1 60v320q0 63 6 106q77 11 137 11q55 0 112 -20t94 -54q38 -35 57 -89q20 -57 20 -131q0 -152 -79 -234q-79 -84 -229 -84q-24 0 -51 3q-15 1 -48 5z" />
    <glyph glyph-name="E" unicode="E" horiz-adv-x="611" 
d="M222 327q27 4 86 4l58 -1l38 -2q30 -5 37 -15q11 -13 11 -37l2 -21v-17h33l-3 114l3 113h-33v-17l-2 -21l-2 -18l-4 -13q-4 -10 -17 -15q-12 -5 -22 -6l-23 -2h-18q-8 -1 -17 -1h-41l-52 3q-7 1 -18 1h-16v99l1 84l1 83q51 6 124 6l52 -2l41 -3q33 -4 65 -16q5 -40 5 -90
h33l1 45l4 39q2 18 6 34q2 7 5 16q2 9 4 16l-73 3l-35 2l-143 -2l-144 -2l-65 2l-75 2v-33l43 -1q20 -3 30 -7q11 -5 17 -18q7 -13 7 -40v-498q0 -32 -12 -46q-14 -14 -26 -15l-24 -3q-4 0 -8 -1h-14h-13v-34l42 1l101 3l125 -2l93 -2l67 -1q50 0 107 6q0 70 13 164h-33
l-9 -47l-16 -60q-31 -12 -60 -15q-27 -3 -85 -3l-71 2q-20 0 -39 1q-2 0 -17 1q-17 1 -23 1l-1 11v11q-1 3 -1 73v68v119z" />
    <glyph glyph-name="F" unicode="F" horiz-adv-x="556" 
d="M210 327q28 4 86 4l58 -1l38 -2q28 -4 37 -15q11 -13 11 -37l1 -21l1 -17h33l-3 114l3 113h-33l-1 -17l-1 -21l-2 -18l-4 -13q-4 -10 -17 -15q-12 -5 -22 -6l-23 -2h-18q-8 -1 -18 -1h-40l-51 3q-7 1 -18 1h-17v152q0 56 6 114q60 6 120 6l50 -2l41 -3q32 -4 67 -16
q5 -38 5 -90h33l2 46l4 39q3 23 6 36q2 6 4 13l4 16q-62 5 -108 5l-72 -2l-102 -1l-113 -1l-61 2l-75 2v-34l43 -1q7 0 17 -2l8 -2l5 -2q11 -4 18 -18q6 -13 6 -40v-498q0 -32 -12 -46q-14 -14 -26 -15l-24 -3q-4 0 -8 -1h-13h-14v-34l72 2l71 2l72 -2l71 -2v34l-32 2l-23 1
q-10 2 -16 4q-11 4 -19 18q-7 13 -7 40v232z" />
    <glyph glyph-name="G" unicode="G" horiz-adv-x="763" 
d="M699 43l-4 27q-4 17 -4 31v22l-1 24q0 50 9 69t33 28l20 8v22l-8 -1h-13h-13l-34 -2l-34 -1l-71 2l-72 2v-34l33 -1h6q18 0 29 -4q13 -5 18 -10q11 -14 11 -50l-3 -79v-32q-99 -35 -166 -35q-70 0 -129 24q-58 23 -102 69q-43 45 -66 104q-13 34 -17 63q-6 30 -6 69
q0 72 21 127q22 57 61 95q40 40 94 59q57 20 130 20q56 0 111 -15q54 -14 96 -38q13 -10 16 -18q3 -9 3 -47v-32h31l8 79q5 36 13 65l-23 7q-7 2 -9 3q-10 2 -21 5q-14 4 -24 6q-34 9 -66 15q-58 12 -122 12q-95 0 -166 -20q-68 -20 -128 -65q-41 -33 -70 -75
q-28 -41 -43 -90t-15 -99q0 -86 28 -152q28 -69 79 -116q51 -48 122 -72q69 -25 157 -25l36 1l40 3l41 5l37 6l41 9l38 10q48 14 68 22z" />
    <glyph glyph-name="H" unicode="H" horiz-adv-x="832" 
d="M214 341l32 2l72 2q24 0 46 1h53l96 -2l75 -1l32 -2v-246q0 -31 -11 -45q-10 -13 -28 -16l-28 -3q-4 0 -8 -1h-8h-14v-34l72 2l71 2l72 -2l71 -2v34q-3 1 -9 1h-9h-21q-29 3 -37 7q-13 8 -17 21q-4 12 -4 36v498q0 23 5 38q4 14 15 19q10 4 19 6l19 1l39 1v34l-71 -2
l-42 -1l-30 -1l-71 2l-42 1l-30 1v-34l46 -1q7 0 15 -2l16 -5q9 -4 15 -18q5 -15 5 -39v-206l-20 -2h-12l-87 -2h-84l-171 2l-13 1l-19 1v206q0 23 5 38q4 14 15 19q10 4 19 6l19 1l39 1v34l-71 -2l-42 -1l-30 -1l-71 2l-72 2v-34l43 -1q6 0 16 -2q3 -1 9 -2q4 -2 5 -2
q11 -4 18 -18q6 -13 6 -40v-498q0 -32 -12 -46q-14 -14 -26 -15l-24 -3q-4 0 -8 -1h-13h-14v-34l72 2l71 2l72 -2l71 -2v34l-32 2l-23 1q-10 2 -16 4q-11 4 -19 18q-7 13 -7 40v246z" />
    <glyph glyph-name="I" unicode="I" horiz-adv-x="337" 
d="M313 692l-71 -2l-42 -1l-30 -1l-71 2l-72 2v-34l43 -1q6 0 16 -2q3 -1 9 -2q4 -2 5 -2q11 -4 18 -18q6 -13 6 -40v-498q0 -32 -12 -46q-14 -14 -26 -15l-24 -3q-4 0 -8 -1h-13h-14v-34l72 2l71 2l72 -2l71 -2v34l-32 2l-23 1q-10 2 -16 4q-11 4 -19 18q-7 13 -7 40v498
q0 23 5 38q4 14 15 19q10 4 19 6l19 1l39 1v34z" />
    <glyph glyph-name="J" unicode="J" horiz-adv-x="333" 
d="M-11 -193l26 -3q37 0 71 21q35 20 62 53t42 66q15 30 20 67t5 117v465q0 23 5 38q4 14 15 19q10 4 19 6l19 1l39 1v34l-71 -2l-42 -1l-30 -1l-71 2l-72 2v-34l43 -1q13 0 28 -5q13 -6 20 -19q6 -13 6 -40v-552q0 -58 -3 -89q-5 -35 -11 -48q-7 -19 -21 -25q-13 -7 -34 -7
q-29 0 -55 17l-10 -6l1 -29v-6v-6z" />
    <glyph glyph-name="K" unicode="K" horiz-adv-x="726" 
d="M308 381l230 212q32 29 53 42q20 11 36 15q18 5 31 6q3 1 8 1t8 1h19v34l-85 -4l-37 3q-17 0 -26 1h-22v-34l-139 -144q-5 -5 -8 -11l-2 -2q-3 -4 -12 -13l-26 -27l-28 -27l-29 -26l-58 -49h-7v234q0 23 5 38q4 14 15 19q10 4 19 6l19 1l39 1v34l-71 -2l-42 -1l-30 -1
l-71 2l-72 2v-34l43 -1q6 0 16 -2q3 -1 9 -2q4 -2 5 -2q11 -4 18 -18q6 -13 6 -40v-498q0 -32 -12 -46q-14 -14 -26 -15l-24 -3q-4 0 -8 -1h-13h-14v-34l72 2l71 2l72 -2l71 -2v34l-32 2l-23 1q-10 2 -16 4q-11 4 -19 18q-7 13 -7 40v218q0 19 11 19q6 0 10 -6l10 -10
l336 -320l70 4l30 -3q5 0 10 -1h13h17v34q-32 5 -48 17q-19 14 -57 48z" />
    <glyph glyph-name="L" unicode="L" horiz-adv-x="611" 
d="M217 45l1 7v8v10l-1 47v51v43v382q0 23 5 38q4 14 15 19q10 4 19 6l19 1l21 2h18v33l-71 -2l-72 -2l-71 2l-72 2v-33l43 -1q20 -3 30 -7q11 -5 17 -18q7 -13 7 -40v-498q0 -26 -3 -38q-5 -14 -11 -19q-10 -8 -32 -20v-22l37 2l41 2l34 1l154 -2l68 -1l48 -2q5 1 14 1h14
l31 1l21 2l29 4l2 16q14 130 18 156h-32l-30 -115q-31 -9 -58 -12l-32 -4q-5 0 -10 -1h-11h-14l-46 -1l-55 -1l-42 1z" />
    <glyph glyph-name="M" unicode="M" horiz-adv-x="946" 
d="M739 586v-491q0 -31 -11 -45q-10 -13 -28 -16q-5 -1 -11 -3q-5 0 -10 -1q-8 0 -11 -1h-13h-13v-33l72 2l71 2l72 -2l71 -2v33l-21 1l-18 1q-29 3 -37 7q-13 8 -17 19t-4 38v498q0 37 12 50q13 13 46 13l15 1l24 1v34l-20 -1h-25l-56 -2l-45 -1q-13 3 -22 3q-4 1 -12 1
h-13q-37 -87 -67 -150l-75 -160l-120 -245l-129 264l-46 95q-51 106 -90 196l-18 -2l-18 -2h-13l-64 2l-76 2v-34l43 -1q11 -1 29 -7q14 -4 18 -18q7 -11 7 -39v-498q0 -32 -12 -46q-13 -14 -29 -16l-27 -3q-3 0 -6 -1h-10h-13v-33l120 4l61 -2l58 -2v33l-33 2q-17 0 -22 1
l-16 5q-11 4 -19 18q-7 13 -7 40v477l175 -362l48 -101q1 -2 4 -7l6 -14l17 -37q13 -26 15 -31l7 -16l7 -17h20l21 51l21 49l38 83l54 114z" />
    <glyph glyph-name="N" unicode="N" horiz-adv-x="831" 
d="M161 581l351 -433l65 -78l18 -23l22 -26q9 -10 23 -20q14 -5 36 -9q26 -6 48 -8l-5 69l-1 45l-2 49l-1 50v396q0 23 5 38q6 15 16 19t19 6l19 1l21 2h18v33l-119 -4l-61 2l-59 2v-33h18l21 -2h8q2 0 7 -1l7 -1q10 -1 15 -5q13 -8 17 -19q4 -9 4 -38v-487l-39 41l-51 62
l-40 50l-167 205l-83 104l-97 124l-17 -2l-18 -2l-64 2l-76 2v-33l43 -1q20 -3 30 -7q13 -5 17 -18q7 -13 7 -40v-498q0 -32 -12 -46q-14 -14 -26 -15l-24 -3q-4 0 -8 -1h-13h-14v-34l120 4l61 -2l58 -2v34l-32 2l-23 1q-10 2 -16 4q-11 4 -19 18q-7 13 -7 40v486z" />
    <glyph glyph-name="O" unicode="O" horiz-adv-x="786" 
d="M23 344q0 -42 6 -78q8 -39 19 -70q26 -65 74 -113q46 -46 112 -72q65 -24 147 -24q106 0 194 51q89 50 138 138q50 88 50 194q0 76 -25 136q-26 63 -72 106q-48 44 -114 66q-69 23 -148 23q-85 0 -157 -25q-39 -14 -66 -31q-15 -8 -29 -19q-10 -8 -26 -22
q-50 -47 -77 -113q-26 -67 -26 -147zM122 384q0 79 32 144q31 62 91 97q58 34 140 34q61 0 112 -22t88 -65q36 -42 56 -102q19 -57 19 -129q0 -95 -30 -166q-29 -71 -86 -109q-56 -37 -134 -37q-64 0 -117 25q-55 24 -92 72q-39 47 -59 112q-20 66 -20 146z" />
    <glyph glyph-name="P" unicode="P" horiz-adv-x="604" 
d="M217 638q38 12 55 14q14 3 19 3q3 1 11 1h15q84 0 127 -37q45 -37 45 -105q0 -36 -11 -67q-10 -29 -30 -49q-18 -18 -48 -29q-27 -10 -65 -10q-20 0 -64 11l9 -37q41 -9 83 -9q60 0 112 30q55 31 85 79q32 49 32 99q0 81 -57 121q-58 41 -166 41l-84 -2l-67 -3
q-5 0 -9 -1h-8h-10h-23l-101 3l-42 1v-34l43 -1q6 0 16 -2q3 -1 9 -2q4 -2 5 -2q11 -4 18 -18q6 -13 6 -40v-498q0 -32 -12 -46q-14 -14 -26 -15l-24 -3q-4 0 -8 -1h-13h-14v-34l72 2l71 2l72 -2l71 -2v34l-32 2l-23 1q-10 2 -16 4q-11 4 -19 18q-7 13 -7 40v393l1 68z" />
    <glyph glyph-name="Q" unicode="Q" horiz-adv-x="786" 
d="M404 -12q79 7 145 39q63 30 115 82q48 51 73 116q14 33 20 70q4 26 5 38q1 13 1 37q0 76 -25 136q-26 63 -72 106q-48 44 -114 66q-69 23 -148 23q-43 0 -81 -6q-44 -9 -75 -20q-75 -26 -123 -71t-76 -112q-26 -67 -26 -147q0 -81 25 -147q26 -67 72 -114q45 -45 112 -71
q66 -25 145 -25q-33 -17 -54 -31l-65 -44v-32l26 16q11 7 15 9q3 2 12 6l3 1q9 4 16 4l12 1q31 0 65 -10l41 -13l51 -18q65 -22 98 -32q42 -14 82 -18l33 27l48 27v25q-24 -7 -32 -8q-16 -2 -24 -2q-14 0 -20 1q-5 1 -10 1q-8 1 -10 1t-7 2q-24 5 -36 9q-25 7 -52 18
q-31 10 -63 24q-20 7 -36 14q-18 7 -24 9q-8 2 -15 5zM126 385q0 62 19 113q18 51 51 87q32 35 81 55q48 19 110 19q31 0 59 -6q24 -5 53 -17q53 -22 87 -63q35 -39 55 -100q19 -57 19 -131q0 -94 -30 -166q-29 -71 -86 -109q-55 -36 -132 -36q-65 0 -117 25q-53 25 -91 72
q-39 49 -58 111q-20 66 -20 146z" />
    <glyph glyph-name="R" unicode="R" horiz-adv-x="668" 
d="M385 349q94 21 144 71t50 125q0 87 -63 118q-33 16 -73 23q-38 7 -88 7l-56 -1l-63 -2l-67 -2l-101 3l-42 1v-34l43 -1q6 0 16 -2q3 -1 9 -2q4 -2 5 -2q11 -4 18 -18q6 -13 6 -40v-498q0 -32 -12 -46q-14 -14 -26 -15l-24 -3q-4 0 -8 -1h-13h-14v-34l72 2l71 2l72 -2
l71 -2v34l-32 2l-23 1q-10 2 -16 4q-11 4 -19 18q-7 13 -7 40v378q2 21 3 48q1 18 1 61q0 14 1 29q1 14 1 28q53 19 102 19q18 0 25 -1q5 -1 10 -1l10 -2q24 -5 37 -11q36 -18 53 -47q18 -30 18 -69q0 -48 -21 -84q-23 -36 -61 -54q-38 -19 -96 -19l-38 2l-5 -16
q54 -57 101 -126l167 -234l69 4q20 -3 32 -3q4 0 9 -1h12h16v34q-32 5 -49 14q-19 12 -30 26l-35 49z" />
    <glyph glyph-name="S" unicode="S" horiz-adv-x="525" 
d="M469 659q-97 42 -188 42q-35 0 -60 -4q-34 -5 -52 -11q-49 -15 -84 -42q-36 -29 -54 -67q-18 -40 -18 -90q0 -97 54 -132q51 -33 158 -44q104 -11 152 -30q49 -21 49 -97q0 -46 -24 -81q-23 -36 -68 -56q-23 -10 -47 -14q-23 -4 -55 -4q-47 0 -86 12q-38 12 -65 33
q-13 12 -16 25q-3 12 -3 51v25h-34l-2 -85q0 -6 -2 -23v-3q-1 -5 -1 -12q-2 -14 -3 -27l13 -5q13 -6 21 -8l7 -2l24 -8l30 -7l12 -3l6 -1h13q21 -4 66 -4q63 0 120 17q55 18 96 52q41 35 62 78q21 45 21 99q0 35 -17 70q-17 34 -43 50q-34 22 -97 28l-124 14q-63 9 -97 37
q-35 27 -35 91q0 40 23 72t60 48q36 16 91 16q148 0 148 -96v-39h34l2 47l2 30q1 25 11 58z" />
    <glyph glyph-name="T" unicode="T" horiz-adv-x="613" 
d="M164 -4l72 2l71 2l72 -2l71 -2v34l-50 2q-25 3 -36 14q-11 14 -11 49v401l2 84l2 67l118 -2l49 -1q17 0 24 -16l3 -6l2 -3q1 -1 1 -5q1 -3 1 -5q3 -7 3 -21l4 -56h30l-1 30v28q1 3 1 12q0 5 1 12q2 18 2 29q1 5 1 11t1 11v21v6l-26 -1l-119 -2l-72 -1h-73h-31h-52l-61 1
l-120 2l-26 1q6 -69 6 -102l-1 -58h31l3 34l4 33l4 26l1 1q4 11 7 13q6 4 12 5t24 1q16 0 27 1h25h26q11 1 23 1h49l1 -46l2 -59v-46v-401q0 -32 -11 -46q-12 -12 -21 -14q-3 -1 -8 -1q-5 -1 -8 -2q-6 -1 -15 -1q-5 0 -9 -1h-10h-15v-34z" />
    <glyph glyph-name="U" unicode="U" horiz-adv-x="778" 
d="M521 658l46 -1q7 0 15 -2l16 -5q9 -4 15 -18q5 -15 5 -39v-281q0 -82 -8 -128q-8 -44 -25 -69q-23 -32 -71 -48q-49 -18 -108 -18t-106 18q-45 16 -68 48q-11 14 -17 35l-1 5q-5 14 -6 19l-1 27l-1 48l-1 43v301q0 31 7 44q10 14 22 17q14 3 47 3l21 1v34l-71 -2l-42 -1
l-30 -1l-71 2l-42 1l-30 1v-34l44 -1l13 -2l14 -4q13 -4 19 -18q7 -13 7 -40v-252v-78v-19q1 -9 1 -20v-43l2 -25l3 -21l6 -18l7 -18q22 -51 91 -82q68 -30 164 -30q72 0 130 20q56 20 92 60l16 19q8 11 12 18q12 22 16 44q5 20 6 30q1 3 1 10q1 6 1 9v14l1 37l1 63v282
q0 27 5 40q4 12 16 17q11 5 18 6l19 1l39 1v34l-119 -4l-61 2l-59 2v-34z" />
    <glyph glyph-name="V" unicode="V" horiz-adv-x="722" 
d="M12 692v-34q26 0 46 -5q17 -4 25 -16q9 -13 16 -33l19 -55l175 -438q6 -11 19 -48q16 -44 26 -74h50q15 50 66 181l164 402l18 47q8 20 22 27q10 7 22 10q16 2 30 2v34l-109 -4l-55 2l-54 2v-34l42 -1q27 0 37 -6q11 -6 11 -18q0 -14 -15 -58q-16 -45 -51 -135l-128 -321
l-132 336l-41 109l-12 27l-5 13l-5 11l-3 12v11q0 12 7 15q7 4 16 4h15h50v35l-72 -2l-61 -2l-44 1l-44 2h-23z" />
    <glyph glyph-name="W" unicode="W" horiz-adv-x="1000" 
d="M778 692v-34l44 -1q43 0 43 -20l-2 -18l-16 -62l-14 -58l-14 -52l-90 -309l-117 331l-35 100l-43 129h-31l-33 -88l-32 -87l-39 -98l-114 -280l-69 310l-19 88q-17 80 -17 92q0 8 5 13t15 6q14 3 29 3q3 1 16 1h19v34l-68 -2l-59 -2l-34 1l-19 1h-16l-17 1h-14l-27 1v-34
l44 -3q18 -5 23 -14q7 -9 16 -54l85 -365l25 -113l11 -50l15 -70h49l19 58l20 56l19 52l31 80l33 79l91 221l80 -220l53 -146l20 -52l16 -45l14 -43l11 -40h51l106 370l28 102q3 9 24 78q8 29 12 39q19 56 30 70q11 9 26 9l28 1v34l-106 -4l-47 3q-22 0 -31 1h-28z" />
    <glyph glyph-name="X" unicode="X" horiz-adv-x="667" 
d="M295 345l-117 -163l-69 -94l-31 -42q-6 -8 -19 -12q-12 -4 -43 -4v-34l52 4q15 -3 25 -3q2 0 5 -1h11h12l25 45l41 65l57 90l38 56l39 53l183 -309l74 4l32 -3q5 0 10 -1h13h18v34h-22q-16 0 -25 6q-9 4 -22 20l-24 36l-21 34l-159 258l34 49l43 57l48 63l39 49l18 24
q9 14 18 21q7 7 23 10q11 4 38 4v30h-102l-182 -268l-83 140q-38 65 -58 92q-16 21 -42 43l-144 -23v-30l14 2h17q41 0 78 -51q44 -62 85 -129z" />
    <glyph glyph-name="Y" unicode="Y" horiz-adv-x="667" 
d="M299 284v-189q0 -32 -12 -46q-14 -14 -23 -15l-27 -3q-6 0 -10 -1h-11h-14v-34l72 2l71 2l72 -2l71 -2v34l-44 2q-12 0 -17 1l-11 3q-10 5 -18 18q-7 13 -7 41v171q0 38 48 120q52 87 112 171q61 87 93 122v12h-75l-112 -194l-34 -59l-32 -54l-28 -44l-46 85l-40 75
l-37 67q-55 97 -85 116q-3 5 -31 15q-78 -14 -117 -23v-30q35 0 50 -7q16 -7 37 -31q56 -60 103 -138q48 -79 102 -185z" />
    <glyph glyph-name="Z" unicode="Z" horiz-adv-x="667" 
d="M154 42l243 322l81 107l71 94l42 53q19 23 40 44v30q-58 -5 -98 -5l-127 1l-127 3l-127 2l-67 -1l1 -25l3 -35l-3 -39q-1 -6 -1 -9l-1 -3v-7v-10l1 -15v-20h32l3 30l3 41q3 23 9 30q8 8 18 9q3 0 8 1l24 3l9 1q16 1 21 1l53 1l50 1l60 1l55 -2l65 -1l-46 -62l-39 -54
l-43 -57l-221 -293q-78 -102 -124 -154v-28l34 2l50 1h120l103 -1l64 -2h38l102 -2l88 2l1 41l3 50l2 44l4 40h-36l-7 -67q-4 -33 -13 -43t-33 -15h-3q-11 -2 -15 -2q-5 -1 -14 -1q-6 0 -11 -1h-14h-20l-99 -1h-212z" />
    <glyph glyph-name="bracketleft" unicode="[" horiz-adv-x="333" 
d="M99 724v-934h211v29h-7l-58 1h-12q-4 0 -15 3q-10 3 -15 6q-11 7 -16 29t-5 61v675v34l1 21l4 17q4 12 16 19q14 6 27 7q4 1 9 1t9 1h17l38 1h7v29h-211z" />
    <glyph glyph-name="backslash" unicode="\" horiz-adv-x="460" 
d="M302 -15h67l-211 722h-67z" />
    <glyph glyph-name="bracketright" unicode="]" horiz-adv-x="333" 
d="M234 -210v934h-211v-29h7q4 0 8 -1h12h13l36 -1q6 0 18 -2q10 -4 14 -6q11 -7 16 -26q4 -16 4 -65v-675q0 -40 -5 -62q-4 -22 -15 -28q-13 -9 -42 -9l-59 -1h-7v-29h211z" />
    <glyph glyph-name="asciicircum" unicode="^" horiz-adv-x="606" 
d="M109 325l194 339l193 -339h58l-223 406h-56l-224 -406h58z" />
    <glyph glyph-name="underscore" unicode="_" 
d="M500 -134v50h-500v-50h500z" />
    <glyph glyph-name="grave" unicode="`" horiz-adv-x="333" 
d="M230 507h33l-144 138q-15 17 -25 21q-8 5 -19 5q-14 0 -23 -9q-9 -10 -9 -21t11 -24q13 -12 45 -31z" />
    <glyph glyph-name="a" unicode="a" 
d="M322 -4l21 3l27 1l61 -2l60 -2v34h-6q-28 0 -48 5q-17 5 -22 17q-3 5 -5 17q-1 6 -1 25v94l-1 101q0 37 -3 56q-3 20 -6 30q-4 14 -6 19q-15 33 -52 52q-44 23 -97 23h-9q-3 0 -12 -1l-9 -1l-28 -7q-34 -11 -52 -21l-64 -36v-67l27 -7l8 21l8 21l10 24q19 13 38 19
q20 5 42 5q124 0 124 -132l-95 -16q-36 -7 -58 -13l-4 -1q-29 -8 -41 -13q-41 -17 -68 -51q-28 -34 -28 -91q0 -21 4 -34q5 -18 11 -28q16 -26 45 -40q27 -13 68 -13q28 0 50 9q11 5 24 12q14 8 24 15q22 15 68 60q0 -35 -5 -87zM327 259v-133q-27 -36 -64 -60
q-34 -21 -70 -21q-35 0 -54 22q-21 23 -21 56q0 39 21 63q23 24 51 37q14 6 34 13q5 1 9 2l27 6z" />
    <glyph glyph-name="b" unicode="b" horiz-adv-x="553" 
d="M137 30q31 -20 63 -32q30 -11 65 -11l19 1l18 4q15 3 36 13l17 10q14 8 20 12l29 20q47 35 55 43q31 28 51 80q19 50 19 106t-24 99q-24 44 -64 69t-89 25q-13 0 -31 -2q-13 -1 -27 -6q-25 -8 -42 -20q-18 -12 -38 -32l-41 -42l-1 210l4 72l6 61v2q0 15 -10 15l-13 -2
l-20 -8q-35 -14 -130 -27v-30h20q23 0 40 -5q12 -4 17 -18q5 -15 5 -41v-437l-2 -92l-2 -28l-6 -39l17 -6l18 17zM172 156v111l1 29l2 19q2 12 9 22q40 70 123 70q14 0 21 -1q4 0 12 -3q5 -1 6 -1q19 -6 33 -16q33 -24 49 -61q16 -39 16 -92q0 -57 -19 -101q-20 -45 -53 -70
q-34 -25 -78 -25q-47 0 -85 26q-37 24 -37 59v34z" />
    <glyph glyph-name="c" unicode="c" horiz-adv-x="444" 
d="M395 66q-56 -29 -108 -29q-39 0 -75 17q-35 17 -57 46q-23 29 -35 70q-13 39 -13 93q0 51 17 86t47 52q32 18 76 18q60 0 88 -21q30 -21 30 -62v-24h30l1 31l2 29l11 69q-30 16 -58 22q-12 3 -14 3q-1 0 -7 1q-1 0 -10 1l-34 1q-41 0 -68 -10q-34 -12 -88 -43
q-57 -33 -83 -83q-25 -47 -25 -113q0 -73 28 -125q27 -54 78 -81t122 -27q35 0 69 8q30 7 70 28l20 31z" />
    <glyph glyph-name="d" unicode="d" horiz-adv-x="611" 
d="M417 439q-61 30 -113 30q-34 0 -81 -18q-49 -20 -89 -48q-41 -30 -57 -56q-33 -55 -33 -128q0 -71 25 -123q26 -55 71 -81q44 -28 104 -28q22 0 67 14l25 23l29 26l27 23l25 18v-2l-1 -47l-4 -46l22 3l26 1l61 -2l60 -2v34h-6q-29 0 -47 5q-18 4 -24 17q-2 5 -4 17
q-1 6 -1 25v483l4 78l5 55v2q0 15 -10 15l-17 -3l-16 -7q-34 -13 -130 -27v-30h20q23 0 40 -5q14 -4 18 -18q4 -12 4 -41v-157zM417 355v-120q0 -50 -4 -71q-4 -25 -15 -46q-14 -30 -47 -50q-31 -19 -67 -19q-70 0 -112 55q-43 55 -43 143q0 53 17 96q17 41 50 62
q32 22 77 22q78 0 144 -72z" />
    <glyph glyph-name="e" unicode="e" horiz-adv-x="479" 
d="M121 233h122l73 1l59 2l37 4l38 7v26q0 59 -22 103q-22 45 -65 70q-43 23 -97 23h-10q-3 0 -12 -1l-9 -1l-33 -8q-40 -12 -65 -26q-30 -17 -50 -39q-26 -26 -43 -72q-16 -45 -16 -103q0 -71 28 -123q29 -54 79 -81q49 -28 119 -28q83 0 166 47l8 20l8 21l-8 7
q-64 -45 -133 -45q-54 0 -93 24q-40 23 -60 66q-12 25 -16 49q-5 28 -5 57zM122 270q0 31 4 52q6 28 11 41q15 35 43 54q29 17 71 17q65 0 87 -46q22 -45 22 -118q-21 -4 -71 -4l-90 2z" />
    <glyph glyph-name="f" unicode="f" horiz-adv-x="333" 
d="M180 384h32l38 1l55 -1l8 47l-4 5l-32 -3h-32l-65 -1v64q0 73 7 105q6 34 21 46q17 12 49 12q36 0 65 -25l12 5l-2 16v25l2 41q-24 6 -42 6q-20 0 -37 -6q-19 -8 -34 -21q-18 -15 -52 -49q-43 -43 -56 -73q-15 -31 -15 -81v-61l-16 -9l-18 -10l-17 -9l-19 -9v-20l13 2h17
l40 3v-290q0 -29 -8 -43t-25 -17q-15 -4 -49 -4v-34l123 4l63 -2l60 -2v34q-32 0 -49 3q-17 5 -25 17q-8 14 -8 44v290z" />
    <glyph glyph-name="g" unicode="g" horiz-adv-x="556" 
d="M437 378h90q11 21 26 44l-5 10q-25 -4 -99 -4h-41q-29 25 -57 34q-27 9 -66 9q-19 0 -29 -1q-4 0 -15 -2q-5 -1 -11 -2q-31 -7 -52 -16q-51 -22 -83 -63q-31 -40 -31 -99q0 -55 28 -86q29 -33 91 -48l-36 -23l-12 -9l-13 -12q-15 -11 -22 -26q-8 -14 -8 -33t12 -30
q8 -6 18 -11q12 -4 33 -12q-33 -23 -86 -49q-18 -28 -23 -39q-5 -17 -5 -42q0 -44 27 -78q25 -36 73 -54q28 -10 51 -14q24 -4 57 -4q78 0 141 28q66 29 101 79t35 108q0 64 -28 95t-84 31l-75 -2l-75 -2q-47 0 -73 9q-22 12 -22 32q0 13 10 24l15 15l24 19h12q1 -1 10 -1
q41 0 81 14q38 14 67 38q26 21 44 56q16 31 16 66q0 16 -11 51zM363 301q0 -38 -13 -63q-14 -28 -36 -41q-23 -14 -56 -14q-32 0 -58 17q-25 19 -38 50q-13 30 -13 71q0 35 13 61q12 28 36 41q23 13 55 13t58 -17q26 -18 39 -48t13 -70zM230 -10h114q55 0 80 -21t25 -69
q0 -63 -52 -105t-129 -42q-69 0 -109 34q-41 33 -41 91q0 33 16 58q15 25 40 40q26 14 56 14z" />
    <glyph glyph-name="h" unicode="h" horiz-adv-x="582" 
d="M412 -4l22 3l26 1l61 -2l60 -2v34h-6q-29 0 -47 5q-18 4 -24 17q-2 5 -4 17q-1 6 -1 25v157l-1 68l-4 43q-6 32 -21 53q-16 23 -55 39q-37 15 -80 15q-13 0 -29 -2q-13 -1 -24 -6q-23 -8 -44 -29l-12 -11l-4 -4l-48 -41v201q0 41 5 99l1 7q1 5 1 7q1 2 1 10q1 7 1 10v2
q0 15 -10 15l-13 -2l-20 -8q-34 -13 -130 -27v-30h20q25 0 40 -5q14 -4 18 -18q4 -12 4 -41v-502q0 -29 -8 -43t-24 -17q-15 -4 -50 -4v-34l123 4l62 -2l61 -2v34q-32 0 -49 3q-17 5 -24 17q-9 14 -9 44v164q0 61 7 79q8 21 26 36q19 16 44 25q26 9 52 9q35 0 60 -13t35 -35
q10 -17 13 -41t3 -89v-138l-1 -47z" />
    <glyph glyph-name="i" unicode="i" horiz-adv-x="291" 
d="M25 -4l125 4l61 -2l60 -2v34q-32 0 -49 3q-17 5 -24 17q-9 14 -9 44v221l2 60l7 73v2q0 15 -10 15l-9 -2l-14 -5l-10 -3q-27 -10 -49 -14q-20 -5 -81 -13v-30h20q30 0 41 -4q13 -5 17 -18q4 -12 4 -42v-240q0 -29 -8 -43q-9 -14 -25 -17q-15 -4 -49 -4v-34zM146 687
q-22 0 -39 -17q-16 -16 -16 -38q0 -24 16 -40q18 -16 39 -16q6 0 14 2q5 1 13 6q14 8 21 21t7 27l-2 14l-6 13q-7 14 -21 21q-13 7 -26 7z" />
    <glyph glyph-name="j" unicode="j" horiz-adv-x="234" 
d="M-32 -281l15 -1q35 0 73 23q36 23 58 59q28 44 37 96q9 49 9 157l-1 113v149l2 54l7 79v2q0 15 -10 15q-7 -1 -16 -4l-16 -7q-29 -12 -131 -26v-30h20q30 0 41 -4q13 -5 17 -18q4 -12 4 -42v-384q0 -29 -3 -54l-8 -49q-12 -49 -31 -72q-19 -25 -44 -25l-14 1l-19 2z
M116 687q-23 0 -39 -16q-17 -17 -17 -40q0 -21 17 -38t39 -17q21 0 38 17t17 38q0 24 -16 40t-39 16z" />
    <glyph glyph-name="k" unicode="k" horiz-adv-x="556" 
d="M186 269v308l3 48l4 54l2 34q0 14 -10 14q-9 0 -33 -10q-41 -14 -130 -27v-29h20q23 0 40 -5q14 -6 18 -19q4 -12 4 -41v-502q0 -41 -17 -52q-18 -12 -65 -12v-34l123 4l63 -2l60 -2v34l-28 1l-20 2q-16 4 -25 18q-9 15 -9 43v148h6q30 -27 64 -61l63 -63l72 -70
q44 -43 65 -59l50 13l43 18v22q-25 5 -30 8q-11 7 -33 26l-97 89l-86 85l-30 32l48 41l33 27l31 24q27 22 58 40q33 17 49 17h18v28h-98l-30 -26l-82 -79l-28 -25l-17 -15l-63 -48z" />
    <glyph glyph-name="l" unicode="l" horiz-adv-x="291" 
d="M22 -4l123 4l63 -2l60 -2v34q-34 0 -49 3q-17 5 -25 17q-8 14 -8 44v483l4 78l5 55v2q0 15 -10 15l-17 -3l-16 -7q-34 -13 -130 -27v-30h20q23 0 40 -5q14 -4 18 -18q4 -12 4 -41v-502q0 -29 -8 -43q-9 -14 -25 -17q-15 -4 -49 -4v-34z" />
    <glyph glyph-name="m" unicode="m" horiz-adv-x="883" 
d="M189 382l4 37l3 29v2q0 14 -10 14l-9 -2l-14 -4l-10 -4q-32 -10 -49 -14q-25 -4 -81 -12v-30h20q30 0 41 -4q13 -5 17 -18q4 -12 4 -42v-240q0 -29 -8 -43q-9 -14 -25 -17q-15 -4 -49 -4v-34l123 4l62 -2l61 -2v34q-32 0 -49 3q-17 5 -24 17q-9 14 -9 44v115q0 98 5 121
q9 35 41 58q32 22 75 22q26 0 48 -12q24 -14 34 -33q6 -9 10 -22q5 -10 6 -27q4 -27 4 -101v-121q0 -29 -8 -43q-9 -13 -24 -18q-16 -3 -50 -3v-34l123 4l63 -2l60 -2v34h-6q-28 0 -48 5q-17 5 -22 17q-3 5 -5 17q-1 6 -1 25v122l1 68l4 43q9 36 40 58q32 21 75 21
q30 0 53 -16q25 -17 35 -40q7 -12 10 -27q4 -12 4 -27v-88v-117l-2 -47l-3 -48l22 3l26 1l61 -2l60 -2v34h-6q-29 0 -47 5t-24 17q-2 5 -4 17q-1 6 -1 25v204l-2 56q-1 20 -9 33q-12 21 -20 30q-21 24 -51 37q-29 13 -65 13q-28 0 -49 -7q-24 -8 -39 -19q-22 -16 -35 -28
l-39 -36q-28 52 -61 71q-32 19 -89 19q-27 0 -45 -7t-34 -18q-15 -9 -36 -29z" />
    <glyph glyph-name="n" unicode="n" horiz-adv-x="582" 
d="M179 376l8 72v2q0 15 -10 15l-10 -2l-13 -4l-10 -4q-24 -10 -49 -14q-20 -5 -81 -13v-30h20q30 0 41 -4q13 -5 17 -18q4 -12 4 -42v-240q0 -29 -8 -43t-25 -17q-15 -4 -49 -4v-34l123 4l62 -2l61 -2v34q-32 0 -49 3q-17 5 -24 17q-9 14 -9 44v130q0 90 7 111q8 22 25 38
q18 17 43 24q11 6 26 8q3 1 6 1q7 1 9 1h12q31 0 58 -13t40 -34q10 -14 13 -37q3 -19 3 -78v-154l-2 -47l-3 -48l22 3l26 1l61 -2l60 -2v34h-6q-29 0 -47 5q-18 4 -24 17q-2 5 -4 17q-1 6 -1 25v188q0 55 -6 83q-6 29 -21 48q-17 20 -34 30q-23 15 -45 19q-14 5 -26 6
q-9 1 -27 1q-31 0 -51 -7q-23 -8 -39 -20q-18 -12 -38 -32z" />
    <glyph glyph-name="o" unicode="o" horiz-adv-x="546" 
d="M35 218q0 -70 29 -123q28 -52 79 -81q50 -27 118 -27q76 0 132 31q57 32 87 88q31 56 31 132q0 70 -28 122q-27 53 -78 81q-50 28 -120 28q-77 0 -132 -31q-57 -32 -87 -88q-31 -56 -31 -132zM127 259q0 32 4 52q5 25 12 43q15 39 47 60q32 20 72 20q37 0 66 -17
q31 -18 49 -47q21 -32 32 -73q10 -40 10 -100q0 -82 -36 -129q-36 -46 -99 -46q-49 0 -84 29q-36 29 -54 81q-6 16 -9 28q-3 14 -6 30q-4 28 -4 69z" />
    <glyph glyph-name="p" unicode="p" horiz-adv-x="601" 
d="M190 371q0 8 8 77v2q0 15 -10 15l-9 -2l-14 -5l-10 -3q-27 -10 -49 -14q-20 -5 -81 -13v-30h20q30 0 41 -4q13 -5 17 -18q4 -12 4 -42v-506q0 -27 -6 -40q-7 -14 -21 -19q-17 -5 -49 -5h-6v-34l123 4l62 -3l61 -1v34l-29 1l-20 3q-15 3 -24 16t-9 44v185q31 -15 53 -21
q22 -5 49 -5q32 0 61 13q23 11 56 31l58 40q31 19 52 51q21 30 33 71t12 84q0 38 -14 77q-14 38 -40 63q-25 25 -61 39q-35 13 -79 13q-29 0 -56 -8q-25 -7 -43 -21q-7 -4 -19 -15l-2 -1l-18 -15q-3 -4 -8 -8zM189 102v153q0 38 5 66q7 25 29 45q47 41 109 41q65 0 105 -49
q41 -50 41 -124q0 -54 -20 -102q-20 -45 -56 -70q-34 -25 -79 -25q-25 0 -51 6q-22 8 -42 21q-22 16 -41 38z" />
    <glyph glyph-name="q" unicode="q" horiz-adv-x="560" 
d="M305 -270l123 4l63 -3l60 -1v34h-6q-12 0 -28 2q-11 1 -20 3q-15 4 -22 19q-6 12 -6 40v471q0 22 1 43q1 22 1 48q2 14 3 33l1 9q3 17 4 26l-17 6l-17 -15l-22 -21q-47 41 -125 41q-21 0 -48 -5q-5 -2 -14 -4q-7 -2 -9 -3q-14 -4 -19 -7q-13 -6 -38 -19l-3 -2l-43 -25
q-45 -24 -71 -74q-12 -25 -18 -55q-6 -28 -6 -63q0 -102 55 -163q56 -62 143 -62l22 1l23 4l115 71v-235q0 -30 -9 -43q-8 -14 -23 -17q-15 -4 -50 -4v-34zM383 378l2 -72q0 -37 1 -54q1 -16 1 -45v-93q-34 -39 -61 -53q-28 -16 -64 -16q-44 0 -79 26q-33 25 -52 71
q-17 46 -17 106q0 80 41 130q40 49 109 49q36 0 64 -12q29 -14 55 -37z" />
    <glyph glyph-name="r" unicode="r" horiz-adv-x="395" 
d="M189 362l1 30l3 25q3 11 3 15q1 4 1 9v7v2q0 15 -10 15l-9 -2l-14 -5l-10 -3q-27 -10 -49 -14q-20 -5 -81 -13v-30h20q30 0 41 -4q13 -5 17 -18q4 -12 4 -42v-240q0 -29 -8 -43q-9 -14 -25 -17q-15 -4 -49 -4v-34l123 4l62 -2l61 -2v34q-32 0 -49 3q-17 5 -24 17
q-9 14 -9 44v165q0 57 25 91t67 34q44 0 65 -46h22q0 71 7 106l2 10q0 6 -14 11q-12 4 -34 4q-29 0 -52 -15q-26 -19 -52 -52z" />
    <glyph glyph-name="s" unicode="s" horiz-adv-x="424" 
d="M74 146h-30l-2 -64l-4 -38l-3 -28q0 -13 62 -21q11 -2 28 -4h4q3 0 5 -1q12 -1 17 -1q3 -1 11 -1q4 0 10 -1h15q86 0 145 46q58 46 58 114q0 61 -36 85q-37 25 -109 39q-73 14 -103 28q-32 15 -32 57q0 21 12 40q13 17 36 28q21 10 50 10q56 0 85 -26t29 -78h29
q0 56 6 111q-66 28 -133 28q-56 0 -99 -17q-40 -18 -63 -50q-22 -31 -22 -75q0 -62 37 -87q35 -25 109 -40q73 -17 103 -31q31 -15 31 -57q0 -38 -33 -64q-34 -26 -83 -26q-51 0 -88 19q-40 21 -40 45z" />
    <glyph glyph-name="t" unicode="t" horiz-adv-x="326" 
d="M180 381l19 -1h27l24 1h61l6 50l-72 -2l-34 -1l-31 -1l4 98l2 44l3 39l-13 9q-31 -16 -81 -38l2 -77l1 -75q-30 -16 -77 -33v-21l37 2l40 1v-185v-51v-21l-1 -23q0 -57 28 -82q27 -27 80 -27q26 0 59 11l22 26l25 30l-14 18q-14 -13 -26 -18q-13 -5 -25 -5q-14 0 -25 3
t-18 8q-13 11 -18 39q-5 30 -5 90v192z" />
    <glyph glyph-name="u" unicode="u" horiz-adv-x="603" 
d="M415 84q0 -4 -3 -51q-2 -26 -2 -37l21 3l27 1l61 -2l60 -2v34h-6q-19 0 -28 1q-6 1 -16 3q-1 0 -5 1q-16 4 -22 17q-2 5 -4 17q-1 6 -1 25v221l2 54l7 79v2q0 15 -10 15l-9 -2l-14 -5l-10 -3q-27 -10 -49 -14q-20 -5 -81 -13v-30h20q30 0 41 -4q13 -5 17 -18q4 -12 4 -42
v-149l-1 -24l-4 -25q-12 -34 -53 -63q-40 -28 -80 -28q-46 0 -71 28q-25 27 -25 76v166l2 54l7 79v2q0 15 -10 15l-9 -2l-14 -5l-10 -3q-24 -10 -49 -14q-20 -5 -81 -13v-30h20q30 0 41 -4q13 -5 17 -18q4 -12 4 -42v-194l2 -38l3 -28q6 -23 22 -42q38 -45 109 -45
q59 0 98 24q34 21 82 73z" />
    <glyph glyph-name="v" unicode="v" horiz-adv-x="565" 
d="M353 459v-34h32q21 0 31 -5q8 -5 8 -15q0 -9 -1 -13t-3 -14l-12 -38q-15 -43 -33 -87l-47 -103q-27 -59 -31 -70l-18 44l-25 62l-38 94q-45 107 -45 124q0 13 10 16l18 3l19 2h24v34l-116 -4l-60 3l-56 1v-34q34 0 49 -9q14 -11 27 -44l40 -92l49 -116l50 -117l22 -55h50
q39 98 62 151q28 64 68 147l50 104q9 19 19 25q8 6 27 6h18v34l-94 -4l-41 3q-19 0 -28 1h-25z" />
    <glyph glyph-name="w" unicode="w" horiz-adv-x="834" 
d="M248 459l-120 -4l-62 3l-57 1v-34h27q23 0 33 -13q13 -14 20 -39l24 -74l39 -128l53 -179h50l25 71l38 87l45 101l40 85l26 -76l31 -80l42 -102l34 -86h47q65 201 152 383q15 31 25 40q9 7 12 8q8 2 15 2h24v34l-98 -4q-25 3 -45 3q-19 0 -28 1h-25v-34h31q20 0 32 -5
q9 -4 9 -18q0 -29 -50 -161l-35 -94l-19 -49l-37 93l-42 105l-37 94l-28 77h-24l-43 -97l-34 -77l-33 -76l-50 -111l-27 84l-5 16q-26 82 -35 117q-16 60 -16 80q0 22 51 22h25v34z" />
    <glyph glyph-name="x" unicode="x" horiz-adv-x="516" 
d="M25 421v-26l11 1h9q27 0 52 -19t47 -47q23 -29 40 -59l37 -57l-32 -40l-70 -82l-17 -20q-3 -3 -6 -7q-15 -16 -18 -19q-13 -9 -24 -13q-12 -4 -29 -4v-33l20 2l23 2l23 -2l19 -2l47 74l30 42l56 71q2 -2 8 -12l22 -35l40 -62q10 -17 19 -27q6 -9 20 -25q19 -22 41 -38
q5 2 11 3q10 3 14 5q14 3 24 6l49 12v28q-18 0 -36 9q-19 11 -30 22q-12 12 -31 39l-22 31q-43 57 -77 111l36 45l86 101q16 19 28 26q12 6 32 6v31l-20 -2l-17 -2l-18 2l-20 2q-56 -87 -129 -181l-52 82q-5 7 -16 24q-14 22 -22 32q-13 18 -31 32q-14 11 -34 18z" />
    <glyph glyph-name="y" unicode="y" horiz-adv-x="556" 
d="M25 -265q21 -11 32 -14t29 -3q45 0 77 26q31 25 57 85l62 141l63 150l20 47l22 50l25 54l50 108l6 16q7 12 11 16q7 7 21 10q3 1 7 2q4 0 7 1q5 1 22 1v34l-94 -4l-41 3q-19 0 -28 1h-25v-34h36q33 0 33 -20q0 -27 -43 -129q-54 -128 -83 -191l-57 134q-30 69 -52 136
l-9 22q-8 21 -8 29t8 13q5 3 15 5q3 1 13 1h36v34l-115 -4l-60 3l-56 1v-34h19q24 0 42 -24q17 -22 46 -101l66 -158l66 -170l-23 -61l-13 -32l-14 -28q-17 -32 -37 -51q-23 -20 -45 -20q-14 0 -27 8q-15 9 -26 23h-11z" />
    <glyph glyph-name="z" unicode="z" 
d="M26 -3l91 3h100l84 -1l83 -1l39 1l38 3q0 16 1 31l1 9q1 18 1 24l8 76h-29l-5 -34l-8 -36q-8 -19 -13 -23q-9 -5 -25 -8q-18 -3 -48 -3l-84 -3q-13 0 -25 -1h-27l-14 1h-11h-37l40 51l50 68l65 83l67 84l64 79l29 33v26l-27 -1h-23l-47 -1l-70 -1l-67 1l-86 1l-67 1
l-4 -4v-22l1 -25l-2 -38l-3 -43h28l3 31q3 28 11 44q8 15 24 15q65 6 214 6l-85 -111l-80 -103l-23 -29q-7 -8 -21 -26l-38 -45q-34 -43 -78 -89z" />
    <glyph glyph-name="braceleft" unicode="{" horiz-adv-x="333" 
d="M117 255q41 12 60 27q20 15 27 37l2 5q1 3 2 5q0 1 1 6q0 2 1 9q2 14 2 21q1 6 1 18v215q0 46 13 69q11 23 35 37q25 14 62 23l-41 -2l-44 -5q-27 -4 -51 -18q-23 -13 -39 -40q-14 -30 -14 -76v-214q0 -22 -5 -44q-4 -19 -15 -33q-19 -23 -72 -40q36 -10 56 -24
q19 -13 27 -35t8 -58l1 -201q0 -51 13 -81q14 -32 36 -45q15 -8 25 -12q10 -3 30 -7l38 -4q22 -2 38 -2h6q-41 9 -63 25q-23 17 -33 41q-11 25 -11 63v206q0 29 -5 54l-5 15l-2 6q-4 9 -9 15q-20 29 -75 44z" />
    <glyph glyph-name="bar" unicode="|" horiz-adv-x="228" 
d="M80 -250h68v1000h-68v-1000z" />
    <glyph glyph-name="braceright" unicode="}" horiz-adv-x="333" 
d="M216 258q-43 -14 -60 -28q-19 -13 -27 -36q-5 -11 -6 -23q0 -3 -1 -5q-1 -12 -1 -17q-1 -6 -1 -19v-214q0 -60 -25 -85q-25 -27 -85 -45l37 2l41 4q31 6 58 20q28 14 40 41q13 27 13 74v214l2 31q2 5 3 12l2 5l2 8q7 22 28 36q19 14 55 25q-37 10 -55 23q-21 14 -28 36
q-8 24 -8 59l-1 200q0 55 -13 85q-13 32 -39 45q-25 13 -50 16l-20 3q-6 1 -17 1l-47 1q56 -12 82 -42q25 -29 25 -86v-207q0 -19 3 -36q1 -15 3 -20q2 -6 3 -11q9 -25 30 -40q20 -16 57 -27z" />
    <glyph glyph-name="asciitilde" unicode="~" horiz-adv-x="606" 
d="M525 436q-49 -90 -108 -90q-18 0 -42 8l-27 12l-35 16l-12 6t-9 4q-7 4 -16 6l-4 2q-8 4 -12 5l-15 6q-29 10 -55 10q-21 0 -41 -6q-20 -8 -33 -20q-33 -27 -71 -92l36 -42q24 40 39 59q17 21 33 30q17 9 37 9q29 0 55 -10l28 -12l34 -17l32 -16l29 -11q27 -9 52 -9
q39 0 73 27q33 26 68 84z" />
    <glyph glyph-name="quotesinglbase" unicode="&#x201a;" horiz-adv-x="278" 
d="M89 -125q50 45 84 92q34 44 34 92q0 39 -19 62q-19 24 -46 24q-21 0 -35 -14q-13 -13 -13 -34q0 -16 17 -45q16 -29 16 -49q0 -48 -55 -112z" />
    <glyph glyph-name="florin" unicode="&#x192;" horiz-adv-x="530" 
d="M442 367v37h-132l18 112q13 76 31 109q16 31 39 31q18 0 28 -13q14 -14 27 -49q6 -15 24 -15t31 12q14 14 14 28q0 29 -30 50q-31 22 -79 22q-34 0 -58 -10q-28 -11 -48 -29l-14 -14q-3 -3 -6 -7q-8 -9 -16 -24q-17 -28 -30 -70q-13 -40 -21 -90l-7 -43l-109 1v-38h102
l-49 -379q-5 -38 -11 -54q-7 -19 -17 -27q-8 -7 -18 -7q-25 0 -50 52q-7 16 -23 16q-13 0 -27 -12q-13 -13 -13 -31q0 -26 29 -43q17 -9 30 -12q7 -2 15 -3l4 -1q4 -1 22 -1q40 0 74 28q34 25 54 74q14 35 27 93q5 19 13 61q1 9 5 29q3 22 5 35l28 182h138z" />
    <glyph glyph-name="quotedblbase" unicode="&#x201e;" horiz-adv-x="458" 
d="M89 -125q50 45 84 92q34 44 34 92q0 39 -19 62q-19 24 -46 24q-21 0 -35 -14q-13 -13 -13 -34q0 -16 17 -45q16 -29 16 -49q0 -48 -55 -112zM269 -125q53 49 86 94q32 44 32 90q0 39 -19 62q-19 24 -46 24q-21 0 -35 -14q-13 -13 -13 -34q0 -16 17 -45q16 -29 16 -49
q0 -48 -55 -112z" />
    <glyph glyph-name="ellipsis" unicode="&#x2026;" horiz-adv-x="1000" 
d="M167 -12q29 0 46 18q17 19 17 45q0 29 -17 47t-46 18t-45 -18q-18 -19 -18 -47t18 -46q17 -17 45 -17zM500 -12q30 0 46 18q17 19 17 45q0 29 -17 47q-16 18 -46 18q-28 0 -45 -18q-18 -19 -18 -47t18 -46q17 -17 45 -17zM833 -12q30 0 46 18q17 19 17 45q0 29 -17 47
q-16 18 -46 18q-28 0 -45 -18q-18 -19 -18 -47t18 -46q17 -17 45 -17z" />
    <glyph glyph-name="dagger" unicode="&#x2020;" horiz-adv-x="504" 
d="M266 -125l1 9q0 10 1 21v7q2 28 2 36q0 19 2 57q1 19 5 53l14 165l7 93q0 35 -7 60l-20 71l54 -6l47 -5l15 -2q41 -6 45 -6q12 0 20 8q7 7 7 27q0 21 -7 28t-20 7q-7 0 -66 -9l-67 -9q-4 0 -7 -1h-8h-13l19 126q10 53 10 76q0 18 -11 27q-10 9 -37 9t-37 -10
q-11 -11 -11 -26l1 -15l3 -23l11 -74q9 -46 14 -90l-53 5l-54 7l-35 6l-19 1q-13 0 -20 -7t-7 -28q0 -20 7 -27q8 -8 20 -8l43 5q9 3 32 5l30 3q19 4 31 4l25 2l-13 -44l-6 -23l-5 -21l-2 -18l-1 -25l3 -46l7 -46q3 -28 3 -63l6 -53q4 -43 4 -81l6 -89q2 -14 2 -22
q1 -7 1 -21v-6v-7v-7h28z" />
    <glyph glyph-name="daggerdbl" unicode="&#x2021;" horiz-adv-x="488" 
d="M244 717q-46 0 -46 -35l3 -27l7 -51q6 -35 9 -61q4 -24 6 -34v-16q-14 0 -21 1l-26 3l-37 5q-58 8 -67 8q-12 0 -20 -8q-7 -7 -7 -25q0 -19 7 -26t20 -7l65 8l6 1q17 3 24 4q8 1 21 1h3q14 2 17 2q6 1 15 1l-10 -50l-9 -47q-1 -1 -1 -4q-1 -3 -1 -4v-10l-1 -19
q0 -15 9 -66q8 -45 13 -99q-16 0 -42 3l-44 6q-2 1 -5 1q-11 2 -15 3q-2 0 -8 1q-9 0 -17 1l-20 2q-13 0 -20 -7t-7 -26t7 -26t20 -7l65 8l6 1q17 3 24 4q8 1 21 1h3q14 2 17 2q6 1 15 1l-9 -81l-10 -78l-6 -55q0 -35 46 -35t46 35l-2 28l-8 56l-8 60l-7 70l16 -1l34 -4
l60 -8q25 -4 41 -4q13 0 20 7t7 26q0 20 -7 26q-7 7 -20 7q-11 0 -36 -4l-39 -6l-22 -3l-26 -3q-4 0 -8 -1h-8h-12l9 64l5 35q5 23 6 33q1 3 1 10q1 6 1 9v14v14l-2 22l-8 41l-12 57l16 -1l34 -3l60 -9q25 -4 41 -4q13 0 20 7t7 26t-7 26t-20 7q-9 0 -42 -5l-60 -8l-25 -3
l-24 -1l7 57l8 54l5 24l3 28q0 1 1 4l1 4v7v11q0 35 -46 35z" />
    <glyph glyph-name="circumflex" unicode="&#x2c6;" horiz-adv-x="400" 
d="M353 562l-117 133q-22 25 -36 25t-36 -25l-117 -133l19 -21l103 77q23 15 31 15q12 0 31 -15l103 -77z" />
    <glyph glyph-name="perthousand" unicode="&#x2030;" horiz-adv-x="1208" 
d="M1000 -12q53 0 88 22q37 21 53 63q17 43 17 98q0 90 -39 136q-41 47 -119 47q-77 0 -118 -48q-39 -48 -39 -135q0 -89 40 -135q39 -48 117 -48zM1000 322q40 0 62 -37t22 -114q0 -17 -2 -45q-2 -13 -8 -37q-11 -36 -29 -51q-19 -18 -45 -18t-45 19q-19 17 -28 50
q-10 31 -10 82q0 39 6 67q6 31 16 47q22 37 61 37zM630 -12q53 0 88 22q37 21 53 63q17 43 17 98q0 90 -39 136q-41 47 -119 47t-117 -48q-40 -47 -40 -135q0 -89 40 -135q39 -48 117 -48zM630 322q39 0 62 -38q22 -37 22 -113q0 -24 -3 -45q-4 -23 -7 -37q-11 -36 -29 -51
q-19 -18 -45 -18t-45 19q-19 17 -28 50q-10 31 -10 82q0 39 6 67q6 31 16 47q22 37 61 37zM659 679l-34 21l-24 -34q-12 -17 -31 -26q-15 -7 -40 -7h-169l-23 2l-8 4l-12 7q-46 34 -111 34q-77 0 -118 -48q-39 -48 -39 -135q0 -90 40 -136q41 -47 117 -47q53 0 88 22
q38 23 54 63q16 39 16 98q0 68 -13 104h205l-374 -599l36 -27zM207 648q40 0 62 -37t22 -114q0 -17 -2 -45q-2 -12 -8 -36q-11 -37 -29 -52q-19 -18 -45 -18q-25 0 -45 18q-18 17 -29 52q-9 33 -9 81q0 39 6 67q6 31 16 47q22 37 61 37z" />
    <glyph glyph-name="Scaron" unicode="&#x160;" horiz-adv-x="541" 
d="M60 45q31 -28 86 -45q56 -15 111 -15q81 0 139 29q57 29 82 74q14 24 20 48q6 26 6 52q0 83 -49 132q-48 48 -148 85l-32 12q-58 23 -90 55q-33 32 -33 73q0 35 15 65q17 32 44 46q28 16 69 16q64 0 101 -37t49 -113h31v141q-8 8 -19 12q-2 2 -3 2q-7 4 -11 5q-5 2 -11 4
q-3 1 -7 3q-5 2 -7 3l-1 1q-8 2 -14 3l-33 6q-17 4 -31 4q-6 1 -16 1h-17q-99 0 -164 -49q-66 -49 -66 -144q0 -50 25 -87q27 -39 66 -64q38 -26 98 -46l18 -7q29 -12 62 -32q32 -20 54 -49q23 -31 23 -71q0 -19 -5 -41q-3 -15 -13 -34q-17 -30 -51 -47q-32 -16 -75 -16
q-23 0 -44 6q-23 7 -39 16q-35 23 -61 65q-25 39 -37 98h-32zM411 882l-107 -61q-28 -14 -33 -14q-6 1 -33 14l-107 61l-13 -21l116 -114l13 -12l12 -9q6 -3 12 -3q10 0 37 24l116 114z" />
    <glyph glyph-name="guilsinglleft" unicode="&#x2039;" horiz-adv-x="257" 
d="M196 435l-150 -181q-5 -7 -5 -15t5 -16l150 -182l20 16l-79 164q-4 7 -4 18t4 16l79 163z" />
    <glyph glyph-name="OE" unicode="&#x152;" horiz-adv-x="1025" 
d="M453 692l-50 -1l-43 -3q-45 -4 -88 -17t-86 -40q-38 -24 -71 -65q-31 -40 -49 -97q-18 -55 -18 -128q0 -100 39 -174q39 -71 101 -111q11 -7 31 -17q9 -5 31 -13l33 -10l39 -8l36 -5l28 -2l62 -1h536l12 173h-30q-7 -44 -23 -73q-13 -28 -35 -42q-23 -14 -53 -18
q-35 -5 -83 -5q-25 0 -35 1q-20 2 -29 3q-24 3 -38 9q-15 9 -21 27q-6 17 -6 50v216h140q40 0 61 -8q20 -8 26 -26q5 -9 6 -22q4 -17 5 -31h30v211h-30q-8 -41 -13 -55q-6 -15 -24 -23q-21 -8 -61 -8h-140v242q0 21 7 28q8 8 30 8h98q56 0 86 -10t44 -37q14 -26 21 -82h30
v164h-506zM544 88q0 -32 -26 -43q-24 -10 -90 -10q-99 0 -159 45t-84 115q-8 20 -12 37q-3 12 -7 36q-6 38 -6 78q0 134 62 223q61 88 208 88q56 0 86 -11q28 -10 28 -41v-517z" />
    <glyph glyph-name="quoteleft" unicode="&#x2018;" horiz-adv-x="278" 
d="M190 748l-13 -13q-10 -9 -11 -10q-6 -6 -19 -21l-3 -3q-23 -22 -39 -45q-33 -46 -33 -92q0 -39 19 -62q19 -24 46 -24q20 0 34 14t14 34q0 15 -17 46q-16 28 -16 48q0 48 55 112z" />
    <glyph glyph-name="quoteright" unicode="&#x2019;" horiz-adv-x="278" 
d="M89 472q52 49 84 92q34 44 34 92q0 39 -19 62q-19 24 -46 24q-21 0 -34 -13q-14 -16 -14 -35q0 -16 17 -45q16 -28 16 -49q0 -48 -55 -112z" />
    <glyph glyph-name="quotedblleft" unicode="&#x201c;" horiz-adv-x="458" 
d="M190 748l-13 -13q-10 -9 -11 -10q-6 -6 -19 -21l-3 -3q-23 -22 -39 -45q-33 -46 -33 -92q0 -39 19 -62q19 -24 46 -24q20 0 34 14t14 34q0 15 -17 46q-16 28 -16 48q0 48 55 112zM370 748q-55 -50 -85 -93q-33 -46 -33 -91q0 -39 19 -62q20 -24 46 -24q21 0 35 14
q13 13 13 34q0 17 -16 46q-17 29 -17 48q0 48 55 112z" />
    <glyph glyph-name="quotedblright" unicode="&#x201d;" horiz-adv-x="458" 
d="M89 472q52 49 84 92q34 44 34 92q0 39 -19 62q-19 24 -46 24q-21 0 -34 -13q-14 -16 -14 -35q0 -16 17 -45q16 -28 16 -49q0 -48 -55 -112zM269 472q54 50 85 92q33 45 33 92q0 39 -19 62q-19 24 -46 24q-21 0 -34 -13q-14 -16 -14 -35q0 -8 1 -11q1 -2 1 -4q0 -3 1 -5
l12 -23q10 -17 14 -26q4 -11 4 -25q0 -48 -55 -112z" />
    <glyph glyph-name="bullet" unicode="&#x2022;" horiz-adv-x="409" 
d="M205 512q-42 0 -79 -22q-36 -22 -59 -60q-22 -37 -22 -78q0 -43 22 -80t58 -58q37 -22 80 -22q31 0 62 14q32 14 50 34q23 23 35 51q12 29 12 61t-13 62q-15 32 -35 52q-20 21 -50 34q-15 6 -30 9q-13 3 -31 3z" />
    <glyph glyph-name="endash" unicode="&#x2013;" horiz-adv-x="1000" 
d="M0 279v-57h1000v57h-1000z" />
    <glyph glyph-name="emdash" unicode="&#x2014;" 
d="M0 279v-57h500v57h-500z" />
    <glyph glyph-name="tilde" unicode="&#x2dc;" horiz-adv-x="400" 
d="M357 682q-20 -24 -35 -36q-8 -7 -15 -8q-10 -2 -18 -2l-22 3l-23 6l-31 10q-48 19 -79 19q-30 0 -51 -15t-32 -32q-15 -25 -29 -51l19 -13q19 28 34 40q16 11 38 11q26 0 80 -19l28 -9l11 -3q11 -3 15 -4q10 -2 15 -2l11 -1q33 0 60 26q22 22 44 69z" />
    <glyph glyph-name="trademark" unicode="&#x2122;" horiz-adv-x="1100" 
d="M275 665h34q37 0 55 -6t27 -21q10 -16 14 -47h21v101h-381v-101h21q6 33 15 48q11 17 28 21q20 5 56 5h32v-326q0 -16 -4 -23q-5 -8 -18 -11l-20 -4q-2 0 -5 -1h-10h-12v-23h216v23l-26 1l-22 4q-15 4 -18 11q-3 6 -3 23v326zM628 277v23q-45 5 -55 9q-15 8 -15 25l-3 32
l-1 39v232h4l166 -349h21l167 349h4v-298q0 -13 -3 -24q-4 -7 -15 -10l-16 -4q-5 -1 -12 -1h-10v-23h188v23l-24 3q-2 1 -4 1q-3 0 -5 1h-6q-12 5 -14 11q-3 8 -3 23v291q0 25 7 29q10 6 19 7q12 3 30 3v23h-149l-28 -64l-45 -95l-67 -143h-2l-67 142l-37 80q-19 40 -36 80
h-152v-23q41 -5 48 -10q8 -5 8 -29v-225q0 -34 -2 -68q-3 -24 -16 -28q-12 -6 -42 -9v-23h167z" />
    <glyph glyph-name="scaron" unicode="&#x161;" horiz-adv-x="436" 
d="M367 351v117q-23 17 -58 26q-14 4 -19 5q-6 1 -17 1l-9 1t-12 1h-14q-82 0 -132 -39q-50 -38 -50 -107q0 -56 40 -89q37 -33 111 -56q51 -17 79 -38q29 -23 29 -67q0 -23 -12 -44q-11 -18 -34 -29q-20 -10 -47 -10q-111 0 -146 144h-29l10 -131q25 -24 68 -36
q41 -12 88 -12q59 0 100 19q44 20 65 53q22 34 22 76q0 65 -38 101q-38 35 -119 59q-48 16 -78 35q-29 20 -29 55q0 37 27 59q25 22 63 22q51 0 79 -33q29 -35 33 -83h29zM362 720l-103 -77q-19 -15 -31 -15q-10 0 -31 15l-103 77l-19 -21l117 -133q24 -25 36 -25
q14 0 36 25l117 133z" />
    <glyph glyph-name="guilsinglright" unicode="&#x203a;" horiz-adv-x="257" 
d="M41 418l79 -163q5 -8 5 -16q-2 -13 -5 -18l-79 -164l20 -16l150 182q5 8 5 16q0 10 -5 15l-150 181z" />
    <glyph glyph-name="oe" unicode="&#x153;" horiz-adv-x="882" 
d="M809 263q19 0 29 7q11 9 11 30q0 43 -15 88q-15 46 -60 80q-43 34 -127 34q-57 0 -102 -23q-42 -22 -71 -57q-29 39 -76 59q-46 21 -110 21q-119 0 -179 -67t-60 -190q0 -122 61 -189q62 -68 178 -68q58 0 106 21q47 19 76 57q53 -78 178 -78q51 0 91 18q41 20 66 51
q24 29 38 72l-30 16q-24 -50 -58 -78t-87 -28q-59 0 -91 33q-33 32 -44 82q-12 50 -12 109h288zM153 245q0 38 4 65q6 36 11 54q17 53 47 77q32 26 73 26q44 0 76 -26q30 -25 45 -76t15 -120t-16 -120q-17 -52 -45 -77t-75 -25q-43 0 -75 27q-31 26 -46 77q-14 51 -14 118z
M522 300v11q0 3 1 12l1 9l7 36q10 37 37 69q26 30 73 30q44 0 67 -23q22 -24 30 -53q7 -28 7 -58q0 -17 -7 -24q-7 -9 -27 -9h-189z" />
    <glyph glyph-name="Ydieresis" unicode="&#x178;" horiz-adv-x="588" 
d="M461 0v29l-38 2l-37 5q-22 6 -26 16q-5 12 -5 41v153q0 34 13 59l80 153q54 102 78 139q19 30 29 43q10 12 23 15q14 5 21 6q3 1 7 1t7 1h19v29h-219v-29l54 -5q16 -3 16 -15l-1 -8l-3 -9l-36 -78l-24 -50l-21 -43l-65 -130h-2l-18 33l-27 49l-39 75q-36 71 -70 145
q-4 5 -4 16q0 13 15 14l59 6v29h-259v-29q13 0 18 -1l20 -3q10 -1 19 -7q19 -8 32 -39l94 -176l70 -137q15 -30 15 -58v-149q0 -29 -6 -41q-4 -12 -23 -15q-19 -4 -36 -6q-18 -2 -35 -2h-6v-29h311zM208 732q28 0 43 17t15 38q0 13 -7 26t-20 20q-14 8 -31 8q-27 0 -42 -16
q-16 -16 -16 -38t16 -38q17 -17 42 -17zM416 732q28 0 43 17t15 38q0 13 -7 26t-20 20q-14 8 -31 8q-27 0 -42 -16q-16 -16 -16 -38t16 -38q17 -17 42 -17z" />
    <glyph glyph-name="exclamdown" unicode="&#xa1;" horiz-adv-x="242" 
d="M121 -217q31 0 44 11q12 13 12 36l-1 20l-40 431h-29l-42 -431q-1 -3 -1 -20q0 -26 13 -36q13 -11 44 -11zM121 502q-30 0 -46 -18q-17 -20 -17 -45q0 -28 18 -46q16 -19 45 -19q28 0 46 20q17 20 17 45q0 27 -17 45q-18 18 -46 18z" />
    <glyph glyph-name="cent" unicode="&#xa2;" horiz-adv-x="530" 
d="M261 599q-14 0 -22 -1q-4 0 -12 -2q-6 -1 -10 -2q-12 -3 -37 -11l-6 -2q-43 -16 -72 -47q-31 -30 -47 -77q-18 -46 -18 -111q0 -126 59 -193q59 -66 165 -66v-97h40v97q31 0 59 9q28 7 52 24q51 31 75 95l-26 16q-31 -55 -69 -75q-36 -19 -91 -19v427q13 -1 32 -8
q16 -6 32 -25q17 -16 33 -54q12 -24 30 -24q12 0 25 6q12 4 20 16q7 10 7 25q0 12 -10 31q-11 20 -28 32q-19 14 -55 25q-38 11 -86 11v76h-40v-76zM261 140q-126 27 -126 216q0 25 2 59q3 21 8 45q11 42 28 61q23 23 43 33t45 10v-424z" />
    <glyph glyph-name="sterling" unicode="&#xa3;" 
d="M40 -14l44 47l115 -18q52 -9 123 -19q25 -4 44 -6q13 -1 37 -1l42 2l29 16l3 85l4 68h-30l-3 -21l-2 -21q-1 -12 -5 -26q-3 -12 -10 -17q-7 -6 -24 -6l-52 2l-49 2l-47 1l-61 3l-49 -2l-49 -4q37 57 50 82q20 37 30 73q10 32 16 93l180 -2l8 42l-4 4l-52 -3h-27h-103
q0 57 5 112q4 43 13 83q10 44 43 71q32 25 79 25q60 0 82 -27q12 -15 18 -38q7 -20 7 -51h30l4 80l7 57q-25 18 -46 23q-22 6 -61 6q-55 0 -101 -25q-48 -26 -100 -67q-16 -15 -31 -33q-11 -15 -21 -40q-8 -26 -11 -54q-4 -25 -4 -68l2 -55l-94 2l-5 -39l5 -5q29 3 55 3h21
l11 -1h7v-21q-1 -3 -1 -14q0 -19 -1 -37q0 -9 -1 -16q-1 -20 -1 -25q-3 -32 -6 -52q-6 -22 -14 -38q-2 -3 -4 -8t-4 -8q-5 -9 -5 -10l-11 -19q-25 -13 -51 -33v-14q-1 -2 -1 -12q1 -2 1 -12v-14h26z" />
    <glyph glyph-name="currency" unicode="&#xa4;" horiz-adv-x="530" 
d="M265 559q-35 0 -73 -12q-35 -10 -61 -34l-27 39q-21 26 -36 26q-13 0 -26 -11q-17 -14 -17 -28q0 -18 25 -37l39 -30q-16 -22 -23 -34q-9 -19 -13 -32q-10 -29 -10 -72q0 -41 10 -72q5 -16 15 -33q9 -18 21 -33l-39 -30q-25 -21 -25 -37q0 -14 17 -28q13 -11 26 -11
q16 0 36 26l27 39q49 -46 134 -46t134 46l27 -39q20 -26 36 -26q13 0 26 11q17 14 17 28q0 18 -25 37l-39 30q46 58 46 138t-46 138l39 30q25 19 25 37q0 14 -17 28q-13 11 -26 11q-16 0 -36 -26l-27 -39q-25 25 -61 36q-33 10 -73 10zM265 506q32 0 62 -14q28 -14 47 -36
t30 -53q6 -16 9 -33q2 -22 2 -36q0 -16 -1 -24q-1 -6 -2 -14q-2 -7 -2 -9q-4 -20 -14 -41q-20 -39 -55 -62q-32 -22 -76 -22q-41 0 -76 23q-36 23 -55 62q-19 38 -19 87q0 35 12 68q11 31 32 56q19 22 47 36q26 12 59 12z" />
    <glyph glyph-name="yen" unicode="&#xa5;" horiz-adv-x="530" 
d="M-2 668v-29l26 -3q26 -3 43 -38l121 -250h-146v-38h160q10 -19 10 -56v-29h-170v-38h170v-100q0 -24 -5 -37q-5 -11 -22 -14q-3 -1 -7 -2q-5 -1 -8 -2q-2 0 -8 -1q-5 0 -9 -1q-7 -1 -30 -1h-6v-29h281v29l-37 3l-30 4q-18 5 -23 14q-5 12 -5 37v100h170v38h-170v30
q0 42 6 55h164v38h-150l71 152q32 63 48 90q17 26 25 33q12 9 30 12l28 4v29h-197v-29l55 -6q15 -3 15 -13l-5 -19q-27 -68 -53 -122l-59 -131l-123 262q-3 5 -3 11q0 13 15 14l47 4v29h-219z" />
    <glyph glyph-name="brokenbar" unicode="&#xa6;" horiz-adv-x="228" 
d="M80 675v-350h68v350h-68zM80 -175h68v350h-68v-350z" />
    <glyph glyph-name="section" unicode="&#xa7;" horiz-adv-x="554" 
d="M46 380q0 -65 37 -114q37 -52 133 -100q91 -47 120 -82q31 -37 31 -77q0 -37 -24 -61t-55 -24q-18 0 -38 6q-19 7 -36 21q-19 16 -34 45q-13 19 -27 19q-20 0 -33 -13q-14 -14 -14 -33q0 -21 21 -39q22 -19 57 -31t76 -12q55 0 96 23q40 24 61 61q20 39 20 82
q37 47 53 91q8 22 13 46q4 20 4 48q0 8 -2 24v2q-1 8 -3 22q-4 23 -15 42q-19 41 -57 72q-42 34 -99 64q-87 46 -109 76q-22 28 -22 58q0 31 22 53q22 23 57 23q25 0 47 -15q23 -13 42 -48q12 -16 27 -16q9 0 16 3q5 1 14 8q13 10 13 29q0 31 -40 53q-40 21 -95 21
q-15 0 -22 -1q-5 -1 -9 -1q-8 -1 -10 -1l-4 -1q-21 -6 -31 -10q-36 -14 -54 -35q-19 -22 -28 -46q-7 -17 -8 -24q-3 -9 -3 -14q-1 -4 -1 -12q-87 -84 -87 -182zM248 242q-78 42 -113 83q-37 44 -37 92q0 31 13 58q13 26 34 42q12 -30 34 -52q26 -23 52 -40l47 -28l37 -21
q63 -34 102 -84q39 -49 39 -104q0 -30 -9 -54q-8 -24 -24 -35q-18 38 -60 72q-40 33 -115 71z" />
    <glyph glyph-name="dieresis" unicode="&#xa8;" horiz-adv-x="400" 
d="M96 570q27 0 44 17q16 16 16 40q0 23 -17 40q-16 16 -43 16t-44 -17q-16 -17 -16 -39q0 -23 17 -40t43 -17zM304 570q29 0 44 17q16 16 16 40t-15 40q-16 16 -45 16q-27 0 -44 -17q-16 -17 -16 -39q0 -23 17 -40t43 -17z" />
    <glyph glyph-name="copyright" unicode="&#xa9;" horiz-adv-x="818" 
d="M409 -15q72 0 141 30q67 28 117 76q50 50 78 116q28 65 28 139q0 71 -29 140q-28 68 -78 117q-49 47 -117 76q-66 28 -140 28q-98 0 -183 -49q-83 -49 -133 -132q-48 -82 -48 -180q0 -50 13 -93q12 -45 36 -87q49 -84 134 -133q84 -48 181 -48zM409 662q62 0 117 -24
q56 -25 97 -67q43 -46 64 -101q22 -57 22 -124q0 -63 -23 -123q-22 -58 -65 -102q-41 -43 -96 -67q-54 -24 -116 -24t-116 25q-58 25 -97 67q-43 46 -65 102t-22 122q0 33 6 64q6 28 17 59q24 58 65 102q45 45 97 68q55 23 115 23zM563 421v98q-22 15 -58 23q-38 8 -75 8
q-70 0 -117 -25q-48 -27 -70 -71q-24 -46 -24 -106q0 -90 51 -144q49 -55 153 -55q46 0 83 9q38 9 54 22l11 100h-20q-15 -54 -43 -78q-28 -25 -75 -25q-49 0 -78 26q-30 26 -42 66q-7 18 -10 42q-3 21 -3 46q0 48 13 84t42 59q28 22 73 22q56 0 82 -26q26 -27 33 -75h20z
" />
    <glyph glyph-name="ordfeminine" unicode="&#xaa;" horiz-adv-x="390" 
d="M304 510q0 36 -22 58t-90 22q-33 0 -68 -11q-20 -7 -30 -13q-8 -4 -22 -14q-19 -17 -19 -35q0 -13 15 -22q14 -10 29 -10q20 0 28 26q13 30 28 40q17 11 34 11q18 0 34 -14q14 -14 14 -39v-38l-65 -21l-51 -18q-46 -15 -62 -34q-17 -18 -17 -43q0 -38 26 -64t72 -26l14 1
l13 3q17 5 28 11l28 15l14 9q8 -21 17 -29q11 -9 29 -9l21 2l22 3q22 5 40 13l-3 18h-32q-25 7 -25 54v154zM235 366q0 -32 -18 -49q-20 -17 -39 -17q-28 0 -43 18q-16 16 -16 44q0 24 13 37q13 15 40 24q33 14 63 21v-78z" />
    <glyph glyph-name="guillemotleft" unicode="&#xab;" horiz-adv-x="442" 
d="M196 435l-150 -181q-5 -7 -5 -15t5 -16l150 -182l20 16l-79 164q-4 7 -4 18t4 16l79 163zM381 435l-150 -181q-5 -7 -5 -15t5 -16l150 -182l20 16l-79 164q-4 7 -4 18t4 16l79 163z" />
    <glyph glyph-name="logicalnot" unicode="&#xac;" horiz-adv-x="570" 
d="M459 102h68v287h-484v-58h416v-229z" />
    <glyph glyph-name="minus" unicode="&#xad;" horiz-adv-x="334" 
d="M315 274h-268l-27 -77h268z" />
    <glyph glyph-name="minus" unicode="&#x2212;" horiz-adv-x="334" 
d="M315 274h-268l-27 -77h268z" />
    <glyph glyph-name="registered" unicode="&#xae;" horiz-adv-x="818" 
d="M409 -15q72 0 141 30q67 28 117 76q50 50 78 116q28 65 28 139q0 71 -29 140q-28 68 -78 117q-49 47 -117 76q-66 28 -140 28q-98 0 -183 -49q-83 -49 -133 -132q-48 -82 -48 -180q0 -50 13 -93q12 -45 36 -87q49 -84 134 -133q84 -48 181 -48zM409 662q62 0 117 -24
q56 -25 97 -67q43 -46 64 -101q22 -57 22 -124q0 -63 -23 -123q-22 -58 -65 -102q-41 -43 -96 -67q-54 -24 -116 -24t-116 25q-58 25 -97 67q-43 46 -65 102t-22 122q0 33 6 64q6 28 17 59q24 58 65 102q45 45 97 68q55 23 115 23zM412 159v20l-30 4q-13 3 -18 8q-4 7 -4 20
v123h34q45 0 60 -30q5 -13 12 -46l8 -32l6 -24q11 -22 27 -33q16 -10 46 -10h44v15q-25 9 -35 17q-21 24 -27 62q-9 43 -24 65t-54 31v2q43 8 71 32q26 25 26 63q0 94 -130 94h-180v-20l31 -4q13 -3 16 -9q4 -4 4 -21v-275q0 -16 -4 -21q-8 -6 -16 -7l-31 -4v-20h168z
M360 491q0 11 8 16t37 5q79 0 79 -74q0 -76 -86 -76h-38v129z" />
    <glyph glyph-name="macron" unicode="&#xaf;" horiz-adv-x="400" 
d="M56 655v-58h288v58h-288z" />
    <glyph glyph-name="degree" unicode="&#xb0;" horiz-adv-x="350" 
d="M313 542q0 38 -20 70q-20 33 -50 50q-31 18 -68 18q-38 0 -70 -19q-33 -20 -50 -50q-18 -31 -18 -69q0 -37 19 -69q8 -15 22 -29q10 -10 27 -22q32 -18 70 -18t70 19q33 21 50 50q18 32 18 69zM174 632q34 0 58 -27q25 -26 25 -63q0 -39 -25 -64q-24 -26 -57 -26
q-32 0 -58 27q-24 26 -24 63t25 63q26 27 56 27z" />
    <glyph glyph-name="plusminus" unicode="&#xb1;" horiz-adv-x="570" 
d="M43 311h209v-197h68v197h207v58h-207v187h-68v-187h-209v-58zM43 0h484v58h-484v-58z" />
    <glyph glyph-name="twosuperior" unicode="&#xb2;" horiz-adv-x="380" 
d="M321 272l27 89l-23 5q-10 -19 -22 -28q-10 -7 -34 -7h-162q21 55 91 92q75 41 104 72t29 76q0 54 -37 82q-36 27 -101 27q-66 0 -105 -30q-38 -29 -38 -66q0 -15 14 -26q14 -10 31 -10q22 0 26 24q17 80 69 80q28 0 41 -19q14 -20 14 -51q0 -35 -16 -69q-19 -37 -64 -68
q-123 -83 -133 -163l9 -10h280z" />
    <glyph glyph-name="threesuperior" unicode="&#xb3;" horiz-adv-x="380" 
d="M253 384q0 -91 -70 -91q-27 0 -46 19q-21 18 -33 53q-8 20 -23 20q-17 0 -30 -13q-15 -13 -15 -31q0 -20 18 -38q20 -18 51 -28q30 -10 70 -10q29 0 49 4q22 3 40 10q36 13 56 40q19 25 19 63q0 52 -36 77q-20 16 -35 21q-15 7 -35 7v2q36 9 61 30q27 20 27 62
q0 35 -20 58q-21 24 -50 31q-26 10 -64 10q-58 0 -96 -26t-38 -58q0 -17 13 -27t28 -10q19 0 23 18q20 75 65 75q32 0 45 -24q12 -24 12 -51q0 -31 -13 -53q-14 -23 -42 -23l-16 1l-18 2l-23 4q-17 0 -17 -24q0 -23 17 -23l18 3q15 4 39 4t46 -18q23 -18 23 -66z" />
    <glyph glyph-name="acute" unicode="&#xb4;" horiz-adv-x="400" 
d="M144 542l151 84q56 30 56 54q0 15 -14 29t-25 14q-23 0 -64 -41l-119 -120z" />
    <glyph glyph-name="mu" unicode="&#xb5;" horiz-adv-x="606" 
d="M591 0v29l-28 3l-24 4q-13 5 -18 15q-5 12 -5 36v409l-7 6l-157 -25v-25l38 -5q22 -4 27 -11q5 -8 5 -34v-225l-2 -38q-2 -15 -6 -22q-18 -35 -52 -54q-33 -21 -71 -21q-44 0 -73 29q-28 28 -28 85v340l-7 6l-157 -25v-25l38 -5q21 -4 26 -11q6 -9 6 -34v-601
q0 -47 36 -47q23 0 48 19q24 19 24 42q-1 16 -26 64q-12 23 -21 53q-5 14 -6 28q0 4 -1 7q-1 8 -1 10v11v33h2q22 -19 43 -25q24 -8 60 -8t65 13l33 17l30 18l26 16l13 8l10 -60h160z" />
    <glyph glyph-name="paragraph" unicode="&#xb6;" horiz-adv-x="555" 
d="M291 692h-12q-63 0 -113 -29q-51 -29 -76 -81q-26 -53 -26 -116q0 -92 60 -154q59 -62 151 -62h16v442zM434 620q0 21 6 28q6 8 21 9l68 9v26h-166v-718q0 -23 -7 -30q-7 -9 -20 -10l-74 -9v-26h172v721z" />
    <glyph glyph-name="periodcentered" unicode="&#xb7;" horiz-adv-x="265" 
d="M133 188q30 0 46 19q17 19 17 44q0 27 -17 47q-16 18 -46 18t-46 -19q-17 -18 -17 -46q0 -26 17 -45q19 -18 46 -18z" />
    <glyph glyph-name="periodcentered" unicode="&#x2219;" horiz-adv-x="265" 
d="M133 188q30 0 46 19q17 19 17 44q0 27 -17 47q-16 18 -46 18t-46 -19q-17 -18 -17 -46q0 -26 17 -45q19 -18 46 -18z" />
    <glyph glyph-name="cedilla" unicode="&#xb8;" horiz-adv-x="400" 
d="M231 0l-46 -84l4 -7q62 0 62 -54q0 -56 -88 -56v-26q21 -3 44 -3q41 0 81 19q41 20 41 69q0 43 -27 63q-27 19 -62 24l32 55h-41z" />
    <glyph glyph-name="onesuperior" unicode="&#xb9;" horiz-adv-x="380" 
d="M307 272v22l-54 5q-22 0 -22 26v351l-7 4l-143 -21v-19l61 -8q15 -4 15 -24v-283q0 -26 -21 -26l-55 -5v-22h226z" />
    <glyph glyph-name="ordmasculine" unicode="&#xba;" horiz-adv-x="398" 
d="M198 265q83 0 123 42q42 42 42 120t-42 121q-40 42 -123 42q-40 0 -71 -11q-29 -10 -51 -32q-41 -44 -41 -120q0 -75 42 -119q42 -43 121 -43zM118 427q0 12 2 32q2 17 4 25q5 27 15 43q21 35 59 35q40 0 61 -35q21 -34 21 -100t-22 -100q-21 -34 -60 -34t-59 35
q-10 18 -15 42q-6 24 -6 57z" />
    <glyph glyph-name="guillemotright" unicode="&#xbb;" horiz-adv-x="442" 
d="M120 255q5 -8 5 -16q-2 -13 -5 -18l-79 -164l20 -16l150 182q5 8 5 16q0 10 -5 15l-150 181l-20 -17zM305 255q5 -8 5 -16q-2 -13 -5 -18l-79 -164l20 -16l150 182q5 8 5 16q0 10 -5 15l-150 181l-20 -17z" />
    <glyph glyph-name="onequarter" unicode="&#xbc;" horiz-adv-x="850" 
d="M190 638q-22 -12 -38 -18q-18 -8 -38 -16q-32 -11 -93 -28l1 -4v-5v-6l1 -14q2 -4 4 -5q7 1 52 24q44 21 53 21q5 -1 6 -7q1 -5 1 -26v-6v-271q0 -10 -1 -14q0 -2 -1 -5q0 -3 -1 -5q-5 -8 -14 -11q-10 -3 -32 -3l-31 -1v-20l55 1l55 1l55 -1l55 -1v20l-31 1l-26 2
q-12 3 -14 5q-5 4 -7 12q-2 10 -2 19v357zM176 -30h69l500 760h-70zM625 -2l54 1l53 1l55 -1l53 -1v20l-30 1l-26 2q-10 3 -15 5q-7 7 -8 13q-1 4 -1 18v51q43 0 71 -3l-1 8l-1 9v8l2 18q-1 0 -7 -1q-4 0 -7 -1h-16h-6h-35v211l3 57l-9 3l-44 -16l-49 -71l-49 -73l-47 -71
l-40 -63l6 -18l19 1h39q17 1 37 1h39q17 1 39 1v-51q0 -10 -1 -14q0 -2 -1 -5q0 -3 -1 -5q-3 -9 -13 -11q-10 -3 -32 -3l-31 -1v-20zM704 354v-209h-37l-32 -1l-67 2l42 67l42 66z" />
    <glyph glyph-name="onehalf" unicode="&#xbd;" horiz-adv-x="850" 
d="M190 638q-22 -12 -38 -18q-18 -8 -38 -16q-32 -11 -93 -28l1 -4v-5v-6l1 -14q2 -4 4 -5q7 1 52 24q44 21 53 21q5 -1 6 -7q1 -5 1 -26v-6v-271q0 -10 -1 -14q0 -2 -1 -5q0 -3 -1 -5q-5 -8 -14 -11q-10 -3 -32 -3l-31 -1v-20l55 1l55 1l55 -1l55 -1v20l-31 1l-26 2
q-12 3 -14 5q-5 4 -7 12q-2 10 -2 19v357zM176 -30h69l500 760h-70zM538 -2l66 1l88 1h52h51l39 -2l3 2l-3 27q0 7 3 23l-3 3l-21 -2q-4 0 -7 -1h-8l-8 -1h-30l-36 -1h-117l37 35l35 31l36 34l28 27q26 28 41 47q2 4 5 8q6 10 8 13q5 9 8 17q1 5 3 12q1 1 1 2q1 2 1 5t1 5
l1 23q0 30 -17 58t-47 42q-33 14 -69 14l-24 -2l-21 -3q-21 -5 -37 -14q-9 -4 -17 -11q-10 -8 -16 -14l-1 -17l-2 -19l-8 -47h19l13 39q7 16 16 23q8 8 24 13q18 5 40 5q24 0 45 -12q21 -11 31 -30q11 -20 11 -43q0 -18 -5 -38q-6 -17 -18 -37q-9 -15 -32 -43l-49 -51
l-110 -106v-16z" />
    <glyph glyph-name="threequarters" unicode="&#xbe;" horiz-adv-x="850" 
d="M21 525h20q9 28 20 44q11 17 27 24q15 7 47 7t55 -20q21 -21 21 -52q0 -21 -11 -41q-10 -18 -30 -29q-19 -11 -41 -11h-13l-18 2l-6 -33l4 -4q32 15 60 15q26 0 45 -10t28 -30q10 -19 10 -45q0 -31 -12 -57q-14 -25 -35 -35q-22 -13 -54 -13q-30 0 -52 11q-21 11 -32 28
q-12 15 -27 46l-18 -7q18 -44 26 -87q21 -10 39 -13q17 -3 38 -3q13 0 18 1q12 2 19 3q19 3 35 9l33 15q14 8 27 18q27 22 40 50q14 30 14 57q0 79 -103 88q22 15 37 30q12 12 22 32q9 20 9 40q0 16 -8 34q-10 18 -25 29q-18 12 -36 17q-19 6 -46 6q-69 0 -110 -44zM175 -30
h70l500 760h-70zM625 -2l54 1l53 1l55 -1l53 -1v20l-30 1l-26 2q-10 3 -15 5q-7 7 -8 13q-1 4 -1 18v51q43 0 71 -3l-1 8l-1 9v8l2 18q-1 0 -7 -1q-4 0 -7 -1h-16h-6h-35v211l3 57l-9 3l-44 -16l-49 -71l-49 -73l-47 -71l-40 -63l6 -18l19 1h39q17 1 37 1h39q17 1 39 1v-51
q0 -10 -1 -14q0 -2 -1 -5q0 -3 -1 -5q-3 -9 -13 -11q-10 -3 -32 -3l-31 -1v-20zM704 354v-209h-37l-32 -1l-67 2l42 67l42 66z" />
    <glyph glyph-name="Agrave" unicode="&#xc0;" horiz-adv-x="635" 
d="M650 0v29l-47 7q-14 5 -22 16q-8 10 -18 37l-212 603h-74l-105 -296l-26 -74l-29 -82l-28 -74l-25 -68q-13 -31 -21 -43q-9 -13 -25 -19q-12 -5 -22 -6l-25 -1v-29h220v29l-52 5q-29 5 -29 20l4 20l61 193h224l67 -191l4 -13q1 -2 1 -8q0 -19 -32 -22l-45 -4v-29h256z
M387 305h-199l12 36l14 42l25 75l24 67l22 66h3zM409 764l-145 99q-26 17 -37 22q-15 5 -28 5q-11 -3 -22 -20q-10 -16 -10 -32q3 -14 14 -22q12 -7 47 -18l170 -56z" />
    <glyph glyph-name="Aacute" unicode="&#xc1;" horiz-adv-x="635" 
d="M650 0v29l-47 7q-14 5 -22 16q-8 10 -18 37l-212 603h-74l-105 -296l-26 -74l-29 -82l-28 -74l-25 -68q-13 -31 -21 -43q-9 -13 -25 -19q-12 -5 -22 -6l-25 -1v-29h220v29l-52 5q-29 5 -29 20l4 20l61 193h224l67 -191l4 -13q1 -2 1 -8q0 -19 -32 -22l-45 -4v-29h256z
M387 305h-199l12 36l14 42l25 75l24 67l22 66h3zM226 742l170 56q37 13 48 19q12 7 13 21q0 12 -11 32q-10 18 -21 20q-7 0 -17 -2q-2 -1 -6 -2q-5 -1 -6 -2q-16 -7 -36 -21l-145 -99z" />
    <glyph glyph-name="Acircumflex" unicode="&#xc2;" horiz-adv-x="635" 
d="M650 0v29l-47 7q-14 5 -22 16q-8 10 -18 37l-212 603h-74l-105 -296l-26 -74l-29 -82l-28 -74l-25 -68q-13 -31 -21 -43q-9 -13 -25 -19q-12 -5 -22 -6l-25 -1v-29h220v29l-52 5q-29 5 -29 20l4 20l61 193h224l67 -191l4 -13q1 -2 1 -8q0 -19 -32 -22l-45 -4v-29h256z
M387 305h-199l12 36l14 42l25 75l24 67l22 66h3zM471 738l-116 114q-27 24 -37 24q-8 0 -16 -6l-21 -18l-116 -114l13 -21l107 61q25 14 33 14q7 0 33 -14l107 -61z" />
    <glyph glyph-name="Atilde" unicode="&#xc3;" horiz-adv-x="635" 
d="M650 0v29l-47 7q-14 5 -22 16q-8 10 -18 37l-212 603h-74l-105 -296l-26 -74l-29 -82l-28 -74l-25 -68q-13 -31 -21 -43q-9 -13 -25 -19q-12 -5 -22 -6l-25 -1v-29h220v29l-52 5q-29 5 -29 20l4 20l61 193h224l67 -191l4 -13q1 -2 1 -8q0 -19 -32 -22l-45 -4v-29h256z
M387 305h-199l12 36l14 42l25 75l24 67l22 66h3zM475 842q-25 -30 -36 -38q-14 -8 -32 -8q-11 0 -23 3l-24 6l-29 10q-48 19 -79 19t-51 -16q-20 -15 -32 -30q-1 -2 -6 -9q-1 -2 -6 -10q-2 -3 -8 -15q-8 -17 -9 -18l19 -13q19 28 34 40q16 11 38 11q27 0 80 -19l28 -9l27 -7
q15 -3 25 -3q34 0 57 23q20 20 47 72z" />
    <glyph glyph-name="Adieresis" unicode="&#xc4;" horiz-adv-x="635" 
d="M650 0v29l-47 7q-14 5 -22 16q-8 10 -18 37l-212 603h-74l-105 -296l-26 -74l-29 -82l-28 -74l-25 -68q-13 -31 -21 -43q-9 -13 -25 -19q-12 -5 -22 -6l-25 -1v-29h220v29l-52 5q-29 5 -29 20l4 20l61 193h224l67 -191l4 -13q1 -2 1 -8q0 -19 -32 -22l-45 -4v-29h256z
M387 305h-199l12 36l14 42l25 75l24 67l22 66h3zM214 732q28 0 43 17t15 38q0 13 -7 26t-20 20q-14 8 -31 8q-27 0 -43 -16q-15 -16 -15 -38t16 -38q17 -17 42 -17zM422 732q28 0 43 17t15 38q0 13 -7 26t-20 20q-14 8 -31 8q-27 0 -43 -16q-15 -16 -15 -38t16 -38
q17 -17 42 -17z" />
    <glyph glyph-name="Aring" unicode="&#xc5;" horiz-adv-x="627" 
d="M356 666q64 19 64 94q0 53 -31 77t-77 24t-77 -25t-31 -76q0 -73 62 -93l-97 -271l-26 -74l-29 -82l-28 -74l-25 -68q-10 -27 -20 -42q-11 -14 -26 -20q-14 -5 -22 -6l-25 -1v-29h220v29l-52 5q-29 5 -29 20l4 20l61 193h224l67 -191q5 -15 5 -21q0 -19 -32 -22l-45 -4
v-29h256v29l-47 7q-14 5 -22 16q-8 10 -18 37zM384 305h-199l18 53l32 96l47 137h3zM362 760q0 -68 -50 -68t-50 68t50 68t50 -68z" />
    <glyph glyph-name="AE" unicode="&#xc6;" horiz-adv-x="876" 
d="M239 692v-29l75 -6q19 -3 19 -13t-7 -21l-123 -225l-65 -121l-36 -68l-34 -61l-20 -36l-20 -35q-18 -30 -33 -36q-15 -8 -58 -12v-29h231v29l-66 7q-17 0 -17 15l2 13l20 45l37 74l81 158h172v-246q0 -26 -5 -43q-6 -12 -21 -15q-17 -5 -29 -6q-18 -2 -35 -2v-29h528
l12 173h-30q-7 -44 -23 -73q-13 -28 -35 -42q-23 -14 -53 -18q-35 -5 -83 -5q-24 0 -35 1t-29 3q-26 3 -38 9q-15 9 -21 27q-6 17 -6 50v216h140q40 0 61 -8q20 -8 26 -26q4 -8 7 -22q0 -3 2 -12q1 -11 2 -19h30v211h-30q-8 -41 -13 -55q-6 -15 -24 -23q-21 -8 -61 -8h-140
v242q0 22 6 29q7 7 31 7h98q56 0 86 -10q32 -10 45 -39q8 -13 12 -33q6 -26 8 -47h30v164h-571zM397 379h-153l34 63l49 92l64 118h6v-273z" />
    <glyph glyph-name="Ccedilla" unicode="&#xc7;" horiz-adv-x="680" 
d="M335 -84l4 -7q62 0 62 -54q0 -56 -88 -56v-26q23 -3 44 -3q42 0 81 19q41 20 41 69q0 43 -27 63q-27 19 -62 24l23 40q36 0 86 8q48 8 74 16l26 9l36 15l14 167h-30q-26 -89 -72 -134q-46 -46 -138 -46q-94 0 -150 53q-57 53 -78 125q-21 74 -21 146q0 63 14 124
q13 57 44 104q32 48 79 74t114 26q81 0 131 -38q47 -37 61 -122h30v156q-13 7 -28 12q-20 6 -30 8q-25 9 -61 14q-22 2 -36 3l-13 1t-44 1q-49 0 -88 -7t-77 -20q-71 -25 -117 -76q-91 -101 -91 -263q0 -29 3 -56q2 -18 8 -52q14 -52 33 -92q19 -39 51 -71q27 -27 63 -45
q36 -19 77 -26q16 -4 24 -5q5 -1 11 -2t11 -2q21 -3 45 -3z" />
    <glyph glyph-name="Egrave" unicode="&#xc8;" horiz-adv-x="606" 
d="M35 692v-29q22 0 29 -1l26 -4q18 -5 25 -9q6 -4 8 -11l2 -16v-17v-6v-506v-21l-2 -15q-1 -9 -11 -15q-8 -5 -19 -7l-30 -5q-5 0 -9 -1h-8h-11v-29h530l12 173h-30q-14 -63 -34 -91q-21 -29 -57 -38q-37 -9 -103 -9q-78 0 -104 10q-15 7 -20 23q-5 15 -5 52v221h140
q40 0 61 -8q20 -8 26 -26q4 -8 7 -22q0 -3 2 -12q1 -11 2 -19h30v211h-30q-8 -41 -13 -55q-6 -15 -24 -23q-21 -8 -61 -8h-140v242q0 24 6 30q8 6 31 6h98q56 0 86 -10q32 -10 45 -39q8 -13 12 -33q6 -26 8 -47h30v164h-505zM389 764l-145 99q-26 17 -37 22q-15 5 -28 5
q-11 -3 -22 -20q-10 -16 -10 -32q3 -14 14 -22q12 -7 47 -18l170 -56z" />
    <glyph glyph-name="Eacute" unicode="&#xc9;" horiz-adv-x="606" 
d="M35 692v-29q22 0 29 -1l26 -4q18 -5 25 -9q6 -4 8 -11l2 -16v-17v-6v-506v-21l-2 -15q-1 -9 -11 -15q-8 -5 -19 -7l-30 -5q-5 0 -9 -1h-8h-11v-29h530l12 173h-30q-14 -63 -34 -91q-21 -29 -57 -38q-37 -9 -103 -9q-78 0 -104 10q-15 7 -20 23q-5 15 -5 52v221h140
q40 0 61 -8q20 -8 26 -26q4 -8 7 -22q0 -3 2 -12q1 -11 2 -19h30v211h-30q-8 -41 -13 -55q-6 -15 -24 -23q-21 -8 -61 -8h-140v242q0 24 6 30q8 6 31 6h98q56 0 86 -10q32 -10 45 -39q8 -13 12 -33q6 -26 8 -47h30v164h-505zM243 742l170 56q37 13 48 19q12 7 13 21
q0 12 -11 32q-10 18 -21 20q-7 0 -17 -2q-2 -1 -6 -2q-5 -1 -6 -2q-16 -7 -36 -21l-145 -99z" />
    <glyph glyph-name="Ecircumflex" unicode="&#xca;" horiz-adv-x="606" 
d="M35 692v-29q22 0 29 -1l26 -4q18 -5 25 -9q6 -4 8 -11l2 -16v-17v-6v-506v-21l-2 -15q-1 -9 -11 -15q-8 -5 -19 -7l-30 -5q-5 0 -9 -1h-8h-11v-29h530l12 173h-30q-14 -63 -34 -91q-21 -29 -57 -38q-37 -9 -103 -9q-78 0 -104 10q-15 7 -20 23q-5 15 -5 52v221h140
q40 0 61 -8q20 -8 26 -26q4 -8 7 -22q0 -3 2 -12q1 -11 2 -19h30v211h-30q-8 -41 -13 -55q-6 -15 -24 -23q-21 -8 -61 -8h-140v242q0 24 6 30q8 6 31 6h98q56 0 86 -10q32 -10 45 -39q8 -13 12 -33q6 -26 8 -47h30v164h-505zM456 738l-116 114q-25 24 -37 24q-1 0 -5 -1
q-4 0 -5 -1l-8 -5l-9 -7l-10 -10l-116 -114l13 -21l107 61q26 14 33 14q8 0 33 -14l107 -61z" />
    <glyph glyph-name="Edieresis" unicode="&#xcb;" horiz-adv-x="606" 
d="M35 692v-29q22 0 29 -1l26 -4q18 -5 25 -9q6 -4 8 -11l2 -16v-17v-6v-506v-21l-2 -15q-1 -9 -11 -15q-8 -5 -19 -7l-30 -5q-5 0 -9 -1h-8h-11v-29h530l12 173h-30q-14 -63 -34 -91q-21 -29 -57 -38q-37 -9 -103 -9q-78 0 -104 10q-15 7 -20 23q-5 15 -5 52v221h140
q40 0 61 -8q20 -8 26 -26q4 -8 7 -22q0 -3 2 -12q1 -11 2 -19h30v211h-30q-8 -41 -13 -55q-6 -15 -24 -23q-21 -8 -61 -8h-140v242q0 24 6 30q8 6 31 6h98q56 0 86 -10q32 -10 45 -39q8 -13 12 -33q6 -26 8 -47h30v164h-505zM199 732q28 0 43 17t15 38q0 13 -7 26t-20 20
q-14 8 -31 8q-27 0 -42 -16q-16 -16 -16 -38t16 -38q17 -17 42 -17zM407 732q28 0 43 17t15 38q0 13 -7 26t-20 20q-14 8 -31 8q-27 0 -42 -16q-16 -16 -16 -38t16 -38q17 -17 42 -17z" />
    <glyph glyph-name="Igrave" unicode="&#xcc;" horiz-adv-x="349" 
d="M224 599q0 29 5 41q6 13 20 16q3 1 7 2t7 2q5 1 15 1q18 2 36 2v29h-279v-29q22 0 29 -1l26 -4q18 -5 25 -9q6 -4 8 -11l2 -16v-17v-6v-506v-21l-2 -15q-1 -9 -11 -15q-8 -5 -19 -7l-30 -5q-5 0 -9 -1h-8h-11v-29h279v29h-12q-2 0 -12 1l-12 1l-27 5q-17 4 -22 17
q-5 12 -5 40v506zM260 764l-145 99q-14 10 -20 13l-1 1q-11 6 -16 7q-15 6 -28 6q-11 -3 -22 -20q-10 -16 -10 -32q3 -14 14 -22q12 -7 47 -18l170 -56z" />
    <glyph glyph-name="Iacute" unicode="&#xcd;" horiz-adv-x="349" 
d="M224 599q0 29 5 41q6 13 20 16q3 1 7 2t7 2q5 1 15 1q18 2 36 2v29h-279v-29q22 0 29 -1l26 -4q18 -5 25 -9q6 -4 8 -11l2 -16v-17v-6v-506v-21l-2 -15q-1 -9 -11 -15q-8 -5 -19 -7l-30 -5q-5 0 -9 -1h-8h-11v-29h279v29h-12q-2 0 -12 1l-12 1l-27 5q-17 4 -22 17
q-5 12 -5 40v506zM100 742l170 56q37 13 48 19q12 7 13 21q0 12 -11 32q-10 18 -21 20q-7 0 -17 -2q-2 -1 -6 -2q-5 -1 -6 -2q-16 -7 -36 -21l-145 -99z" />
    <glyph glyph-name="Icircumflex" unicode="&#xce;" horiz-adv-x="349" 
d="M224 599q0 29 5 41q6 13 20 16q3 1 7 2t7 2q5 1 15 1q18 2 36 2v29h-279v-29q22 0 29 -1l26 -4q18 -5 25 -9q6 -4 8 -11l2 -16v-17v-6v-506v-21l-2 -15q-1 -9 -11 -15q-8 -5 -19 -7l-30 -5q-5 0 -9 -1h-8h-11v-29h279v29h-12q-2 0 -12 1l-12 1l-27 5q-17 4 -22 17
q-5 12 -5 40v506zM328 738l-116 114q-25 24 -37 24q-11 0 -37 -24l-116 -114l13 -21l107 61q25 14 33 14q7 0 33 -14l107 -61z" />
    <glyph glyph-name="Idieresis" unicode="&#xcf;" horiz-adv-x="349" 
d="M224 599q0 29 5 41q6 13 20 16q3 1 7 2t7 2q5 1 15 1q18 2 36 2v29h-279v-29q22 0 29 -1l26 -4q18 -5 25 -9q6 -4 8 -11l2 -16v-17v-6v-506v-21l-2 -15q-1 -9 -11 -15q-8 -5 -19 -7l-30 -5q-5 0 -9 -1h-8h-11v-29h279v29h-12q-2 0 -12 1l-12 1l-27 5q-17 4 -22 17
q-5 12 -5 40v506zM71 732q28 0 43 17t15 38q0 13 -7 26t-20 20q-14 8 -31 8q-27 0 -42 -16q-16 -16 -16 -38t16 -38q17 -17 42 -17zM279 732q28 0 43 17t15 38q0 13 -7 26t-20 20q-14 8 -31 8q-27 0 -42 -16q-16 -16 -16 -38t16 -38q17 -17 42 -17z" />
    <glyph glyph-name="Eth" unicode="&#xd0;" horiz-adv-x="785" 
d="M131 341v-248l-1 -21l-2 -15q-2 -9 -10 -15q-9 -5 -19 -7l-31 -5q-4 0 -8 -1h-8h-11v-29h312q47 0 93 6q50 8 84 19q43 17 77 39q20 14 38 32t31 38q16 23 25 44q13 31 19 52q17 59 17 128q0 75 -23 141q-22 65 -67 106q-30 29 -72 49q-26 12 -44 17q-22 8 -48 12
q-49 9 -110 9h-332v-29q22 0 29 -1l26 -4q18 -5 25 -9t7 -11l3 -16v-17v-6v-220h-111v-38h111zM368 341v38h-138v221q0 29 7 39q8 11 29 14q17 4 80 4q76 0 130 -22q54 -23 85 -62q64 -79 64 -219q0 -42 -5 -84q-6 -40 -16 -69q-21 -64 -61 -99q-41 -39 -91 -52
q-52 -15 -118 -15q-49 0 -67 7q-21 5 -29 24t-8 59v216h138z" />
    <glyph glyph-name="Ntilde" unicode="&#xd1;" horiz-adv-x="780" 
d="M34 692v-29q22 0 29 -1l26 -4q18 -5 25 -9q6 -4 8 -11l2 -16v-17v-6v-396q0 -78 -7 -124q-5 -30 -21 -37q-15 -8 -61 -13v-29h237v29l-27 3l-29 4q-17 5 -27 13q-9 10 -13 32q-4 29 -5 51q-1 19 -1 71v399h2l100 -140l117 -165l96 -136l113 -161h66v489l2 72l1 28l4 24
q5 29 21 38q10 6 25 9q14 3 36 3v29h-237v-29q12 0 19 -1q2 0 10 -1q5 0 10 -1l15 -3q20 -5 28 -14q10 -10 13 -30q7 -43 7 -124v-351l-2 2l-145 205l-131 184l-114 163h-192zM553 842q-25 -30 -35 -37q-12 -9 -33 -9q-10 0 -24 3l-23 6l-29 10q-50 19 -79 19t-51 -14
q-22 -16 -32 -33l-10 -14l-3 -6q-5 -9 -16 -31l19 -13q19 28 34 40q16 11 38 11q27 0 80 -19l26 -8l29 -8q15 -3 25 -3q34 0 57 23q20 20 47 72z" />
    <glyph glyph-name="Ograve" unicode="&#xd2;" horiz-adv-x="762" 
d="M381 707q-161 0 -248 -97q-26 -31 -46 -70q-18 -37 -29 -87q-10 -44 -10 -107q0 -20 2 -54q2 -17 8 -51q10 -49 30 -90q20 -40 45 -69q87 -97 248 -97q163 0 248 97q43 47 63 113q22 65 22 151q0 87 -22 153q-22 68 -63 111q-87 97 -248 97zM381 672q83 0 132 -48
q50 -48 69 -121q9 -34 15 -74q5 -42 5 -83q0 -29 -1 -43q0 -6 -2 -22q-1 -10 -2 -17q-1 -9 -6 -30q-1 -6 -2 -9l-3 -13q-3 -16 -5 -24q-20 -74 -68 -121q-50 -47 -132 -47q-83 0 -131 48q-49 48 -69 120q-10 36 -15 75q-6 39 -6 83q0 1 1 10q0 9 1 28q1 6 1 21l8 58
q11 58 36 104q26 50 69 78q42 27 105 27zM455 764l-145 99q-24 16 -38 22q-13 5 -27 5q-11 -3 -22 -20q-10 -16 -10 -32q3 -14 14 -22q12 -7 47 -18l170 -56z" />
    <glyph glyph-name="Oacute" unicode="&#xd3;" horiz-adv-x="762" 
d="M381 707q-161 0 -248 -97q-26 -31 -46 -70q-18 -37 -29 -87q-10 -44 -10 -107q0 -20 2 -54q2 -17 8 -51q10 -49 30 -90q20 -40 45 -69q87 -97 248 -97q163 0 248 97q43 47 63 113q22 65 22 151q0 87 -22 153q-22 68 -63 111q-87 97 -248 97zM381 672q83 0 132 -48
q50 -48 69 -121q9 -34 15 -74q5 -42 5 -83q0 -29 -1 -43q0 -6 -2 -22q-1 -10 -2 -17q-1 -9 -6 -30q-1 -6 -2 -9l-3 -13q-3 -16 -5 -24q-20 -74 -68 -121q-50 -47 -132 -47q-83 0 -131 48q-49 48 -69 120q-10 36 -15 75q-6 39 -6 83q0 1 1 10q0 9 1 28q1 6 1 21l8 58
q11 58 36 104q26 50 69 78q42 27 105 27zM293 742l170 56q37 13 48 19q12 8 13 21q0 12 -11 32q-10 18 -21 20q-7 0 -17 -2q-2 -1 -6 -2q-5 -1 -6 -2q-13 -7 -36 -21l-145 -99z" />
    <glyph glyph-name="Ocircumflex" unicode="&#xd4;" horiz-adv-x="762" 
d="M381 707q-161 0 -248 -97q-26 -31 -46 -70q-18 -37 -29 -87q-10 -44 -10 -107q0 -20 2 -54q2 -17 8 -51q10 -49 30 -90q20 -40 45 -69q87 -97 248 -97q163 0 248 97q43 47 63 113q22 65 22 151q0 87 -22 153q-22 68 -63 111q-87 97 -248 97zM381 672q83 0 132 -48
q50 -48 69 -121q9 -34 15 -74q5 -42 5 -83q0 -29 -1 -43q0 -6 -2 -22q-1 -10 -2 -17q-1 -9 -6 -30q-1 -6 -2 -9l-3 -13q-3 -16 -5 -24q-20 -74 -68 -121q-50 -47 -132 -47q-83 0 -131 48q-49 48 -69 120q-10 36 -15 75q-6 39 -6 83q0 1 1 10q0 9 1 28q1 6 1 21l8 58
q11 58 36 104q26 50 69 78q42 27 105 27zM534 738l-116 114q-27 24 -37 24q-11 0 -37 -24l-116 -114l13 -21l107 61q25 14 33 14q7 0 33 -14l107 -61z" />
    <glyph glyph-name="Otilde" unicode="&#xd5;" horiz-adv-x="762" 
d="M381 707q-161 0 -248 -97q-26 -31 -46 -70q-18 -37 -29 -87q-10 -44 -10 -107q0 -20 2 -54q2 -17 8 -51q10 -49 30 -90q20 -40 45 -69q87 -97 248 -97q163 0 248 97q43 47 63 113q22 65 22 151q0 87 -22 153q-22 68 -63 111q-87 97 -248 97zM381 672q83 0 132 -48
q50 -48 69 -121q9 -34 15 -74q5 -42 5 -83q0 -29 -1 -43q0 -6 -2 -22q-1 -10 -2 -17q-1 -9 -6 -30q-1 -6 -2 -9l-3 -13q-3 -16 -5 -24q-20 -74 -68 -121q-50 -47 -132 -47q-83 0 -131 48q-49 48 -69 120q-10 36 -15 75q-6 39 -6 83q0 1 1 10q0 9 1 28q1 6 1 21l8 58
q11 58 36 104q26 50 69 78q42 27 105 27zM538 842q-25 -30 -36 -38q-14 -8 -32 -8q-11 0 -23 3l-24 6l-29 10q-48 19 -79 19t-51 -16q-20 -15 -32 -30q-1 -2 -6 -9q-1 -2 -6 -10q-2 -3 -8 -15q-8 -17 -9 -18l19 -13q19 28 34 40q16 11 38 11q27 0 80 -19l28 -9l27 -7
q15 -3 25 -3q34 0 57 23q20 20 47 72z" />
    <glyph glyph-name="Odieresis" unicode="&#xd6;" horiz-adv-x="762" 
d="M381 707q-161 0 -248 -97q-26 -31 -46 -70q-18 -37 -29 -87q-10 -44 -10 -107q0 -20 2 -54q2 -17 8 -51q10 -49 30 -90q20 -40 45 -69q87 -97 248 -97q163 0 248 97q43 47 63 113q22 65 22 151q0 87 -22 153q-22 68 -63 111q-87 97 -248 97zM381 672q83 0 132 -48
q50 -48 69 -121q9 -34 15 -74q5 -42 5 -83q0 -29 -1 -43q0 -6 -2 -22q-1 -10 -2 -17q-1 -9 -6 -30q-1 -6 -2 -9l-3 -13q-3 -16 -5 -24q-20 -74 -68 -121q-50 -47 -132 -47q-83 0 -131 48q-49 48 -69 120q-10 36 -15 75q-6 39 -6 83q0 1 1 10q0 9 1 28q1 6 1 21l8 58
q11 58 36 104q26 50 69 78q42 27 105 27zM277 732q28 0 43 17t15 38q0 13 -7 26t-20 20q-14 8 -31 8q-27 0 -42 -16q-16 -16 -16 -38t16 -38q17 -17 42 -17zM485 732q28 0 43 17t15 38q0 13 -7 26t-20 20q-14 8 -31 8q-27 0 -42 -16q-16 -16 -16 -38q0 -23 16 -39t42 -16z
" />
    <glyph glyph-name="multiply" unicode="&#xd7;" horiz-adv-x="570" 
d="M507 432l-42 46l-180 -184l-181 184l-41 -46l179 -182l-179 -184l41 -44l181 184l180 -184l42 44l-179 184z" />
    <glyph glyph-name="Oslash" unicode="&#xd8;" horiz-adv-x="762" 
d="M639 718l-34 21l-46 -74q-16 10 -38 18q-22 10 -42 13q-22 6 -46 8q-28 3 -52 3q-161 0 -248 -97q-26 -31 -46 -70q-18 -37 -29 -87q-10 -44 -10 -107q0 -20 2 -54q2 -17 8 -51q10 -49 30 -90q20 -40 45 -69l18 -18q3 -2 8 -7q6 -5 9 -8l-49 -78l32 -24l51 81
q73 -43 179 -43q163 0 248 97q43 47 63 113q22 65 22 151q0 87 -22 153q-22 68 -63 111q-18 21 -37 34zM211 117q-23 40 -38 100q-7 25 -10 61q-3 32 -3 68q0 1 1 10q0 9 1 28q1 6 1 21l8 58q11 58 36 104q26 50 69 78q42 27 105 27q92 0 144 -60zM550 577q52 -85 52 -231
q0 -29 -1 -43q0 -6 -2 -22q-1 -10 -2 -17q-1 -9 -6 -30q-1 -6 -2 -9l-3 -13q-3 -16 -5 -24q-20 -74 -68 -121q-50 -47 -132 -47q-89 0 -145 62z" />
    <glyph glyph-name="Ugrave" unicode="&#xd9;" horiz-adv-x="791" 
d="M483 692v-29l31 -2l33 -5q17 -5 22 -16q4 -9 4 -41v-324q0 -135 -46 -194q-46 -61 -132 -61q-85 0 -132 60q-45 60 -45 195v324q0 26 5 41q6 13 20 16q3 1 7 2t7 2q5 1 15 1q18 2 36 2v29h-279v-29l55 -5q17 -3 24 -9q8 -4 9 -15q2 -6 2 -12v-17v-6v-346q0 -17 3 -43
l4 -40q8 -35 20 -63q57 -122 249 -122q193 0 250 122q27 56 27 148v344q0 31 4 42q6 11 19 14q5 2 15 4q3 1 8 1q4 0 7 1t9 1q5 1 8 1h20v29h-279zM457 764l-145 99q-22 15 -36 21q-16 6 -29 6q-11 -3 -22 -20q-10 -16 -10 -32q3 -14 14 -22q12 -7 47 -18l170 -56z" />
    <glyph glyph-name="Uacute" unicode="&#xda;" horiz-adv-x="791" 
d="M483 692v-29l31 -2l33 -5q17 -5 22 -16q4 -9 4 -41v-324q0 -135 -46 -194q-46 -61 -132 -61q-85 0 -132 60q-45 60 -45 195v324q0 26 5 41q6 13 20 16q3 1 7 2t7 2q5 1 15 1q18 2 36 2v29h-279v-29l55 -5q17 -3 24 -9q8 -4 9 -15q2 -6 2 -12v-17v-6v-346q0 -17 3 -43
l4 -40q8 -35 20 -63q57 -122 249 -122q193 0 250 122q27 56 27 148v344q0 31 4 42q6 11 19 14q5 2 15 4q3 1 8 1q4 0 7 1t9 1q5 1 8 1h20v29h-279zM318 742l170 56l31 11l17 7q12 10 13 22q0 15 -11 34q-10 17 -21 18q-9 0 -14 -1l-8 -2l-5 -2q-18 -9 -38 -22l-145 -99z" />
    <glyph glyph-name="Ucircumflex" unicode="&#xdb;" horiz-adv-x="791" 
d="M483 692v-29l31 -2l33 -5q17 -5 22 -16q4 -9 4 -41v-324q0 -135 -46 -194q-46 -61 -132 -61q-85 0 -132 60q-45 60 -45 195v324q0 26 5 41q6 13 20 16q3 1 7 2t7 2q5 1 15 1q18 2 36 2v29h-279v-29l55 -5q17 -3 24 -9q8 -4 9 -15q2 -6 2 -12v-17v-6v-346q0 -17 3 -43
l4 -40q8 -35 20 -63q57 -122 249 -122q193 0 250 122q27 56 27 148v344q0 31 4 42q6 11 19 14q5 2 15 4q3 1 8 1q4 0 7 1t9 1q5 1 8 1h20v29h-279zM549 738l-116 114q-27 24 -37 24q-10 -2 -15 -5q-4 -2 -15 -12l-7 -7l-116 -114l13 -21l107 61q26 14 33 14t33 -14l107 -61z
" />
    <glyph glyph-name="Udieresis" unicode="&#xdc;" horiz-adv-x="791" 
d="M483 692v-29l31 -2l33 -5q17 -5 22 -16q4 -9 4 -41v-324q0 -135 -46 -194q-46 -61 -132 -61q-85 0 -132 60q-45 60 -45 195v324q0 26 5 41q6 13 20 16q3 1 7 2t7 2q5 1 15 1q18 2 36 2v29h-279v-29l55 -5q17 -3 24 -9q8 -4 9 -15q2 -6 2 -12v-17v-6v-346q0 -17 3 -43
l4 -40q8 -35 20 -63q57 -122 249 -122q193 0 250 122q27 56 27 148v344q0 31 4 42q6 11 19 14q5 2 15 4q3 1 8 1q4 0 7 1t9 1q5 1 8 1h20v29h-279zM292 732q28 0 43 17t15 38q0 13 -7 26t-20 20q-14 8 -31 8q-27 0 -42 -16q-16 -16 -16 -38t16 -38q17 -17 42 -17zM500 732
q28 0 43 17t15 38q0 13 -7 26t-20 20q-14 8 -31 8q-27 0 -42 -16q-16 -16 -16 -38t16 -38q17 -17 42 -17z" />
    <glyph glyph-name="Yacute" unicode="&#xdd;" horiz-adv-x="588" 
d="M461 0v29l-38 2l-37 5q-22 6 -26 16q-5 12 -5 41v153q0 34 13 59l80 153q54 102 78 139q19 30 29 43q10 12 23 15q14 5 21 6q3 1 7 1t7 1h19v29h-219v-29l54 -5q16 -3 16 -15l-1 -8l-3 -9l-36 -78l-24 -50l-21 -43l-65 -130h-2l-18 33l-27 49l-39 75q-36 71 -70 145
q-4 5 -4 16q0 13 15 14l59 6v29h-259v-29q13 0 18 -1l20 -3q10 -1 19 -7q19 -8 32 -39l94 -176l70 -137q15 -30 15 -58v-149q0 -29 -6 -41q-4 -12 -23 -15q-19 -4 -36 -6q-18 -2 -35 -2h-6v-29h311zM264 742l170 56q37 13 48 19q12 7 13 21q0 12 -11 32q-10 18 -21 20
q-7 0 -17 -2q-2 -1 -6 -2q-5 -1 -6 -2q-16 -7 -36 -21l-145 -99z" />
    <glyph glyph-name="Thorn" unicode="&#xde;" horiz-adv-x="593" 
d="M224 599q0 29 5 41q6 13 20 16q3 1 7 2t7 2q5 1 15 1q18 2 36 2v29h-279v-29q22 0 29 -1l26 -4q18 -5 25 -9q6 -4 8 -11l2 -16v-17v-6v-506v-21l-2 -15q-1 -9 -11 -15q-8 -5 -19 -7l-30 -5q-5 0 -9 -1h-8h-11v-29h287v29q-18 0 -26 1q-10 2 -24 3l-19 3q-19 6 -24 17
q-5 12 -5 40v89h78q107 0 180 46q74 44 74 147q0 46 -20 84q-21 37 -55 58q-57 36 -176 36h-81v46zM224 481q0 18 7 25q9 9 21 10q10 2 19 2h26q72 0 112 -39q40 -38 40 -110q0 -82 -42 -117q-44 -35 -124 -35q-36 0 -48 9q-11 11 -11 32v223z" />
    <glyph glyph-name="germandbls" unicode="&#xdf;" horiz-adv-x="601" 
d="M191 448q0 54 5 106q4 43 16 75q32 78 106 78q32 0 57 -16q28 -18 40 -44q14 -28 14 -61q0 -20 -6 -40q-6 -21 -16 -32q-56 -15 -87 -50q-30 -34 -30 -85q0 -46 29 -81q12 -15 35 -34q21 -18 46 -34q48 -32 70 -62q22 -28 22 -72q0 -35 -20 -54t-46 -19q-48 0 -78 53
q-9 15 -23 15q-13 0 -25 -12t-12 -26q0 -19 16 -32q18 -16 45 -24q14 -5 31 -7q18 -2 34 -2q47 0 84 18q35 16 56 49q19 29 19 73q0 90 -101 159q-32 22 -60 46q-20 18 -31 36q-10 17 -10 41q0 39 32 65q30 24 85 32q27 35 27 81q0 30 -15 64q-13 36 -57 63q-43 27 -121 27
q-110 0 -169 -68q-30 -33 -43 -88q-6 -24 -9 -58q-4 -31 -4 -73v-368v-20l-2 -14q-1 -7 -9 -12q-8 -7 -20 -8l-21 -3q-5 -1 -13 -1h-10v-29h244v29l-45 4q-13 3 -19 9q-7 4 -9 11q-1 3 -1 6q-1 4 -1 5v8v15v361z" />
    <glyph glyph-name="agrave" unicode="&#xe0;" horiz-adv-x="528" 
d="M322 -4l21 3l27 1l61 -2l60 -2v34h-6q-28 0 -48 5q-17 5 -22 17q-3 5 -5 17q-1 6 -1 25v94l-1 101q0 37 -3 56q-3 20 -6 30q-4 14 -6 19q-15 33 -52 52q-44 23 -97 23h-9q-3 0 -12 -1l-9 -1l-28 -7q-34 -11 -52 -21l-64 -36v-67l27 -7l8 21l8 21l10 24q19 13 38 19
q20 5 42 5q124 0 124 -132l-95 -16q-36 -7 -58 -13l-4 -1q-29 -8 -41 -13q-41 -17 -68 -51q-28 -34 -28 -91q0 -21 4 -34q5 -18 11 -28q16 -26 45 -40q27 -13 68 -13q28 0 50 9q11 5 24 12q14 8 24 15q22 15 68 60q0 -35 -5 -87zM327 259v-133q-27 -36 -64 -60
q-34 -21 -70 -21q-35 0 -54 22q-21 23 -21 56q0 39 21 63q23 24 51 37q14 6 34 13q5 1 9 2l27 6zM290 540h33l-144 138q-15 17 -25 21q-8 5 -19 5q-14 0 -23 -9t-9 -21q0 -11 11 -24q13 -12 45 -31z" />
    <glyph glyph-name="aacute" unicode="&#xe1;" horiz-adv-x="520" 
d="M322 -4l21 3l27 1l61 -2l60 -2v34h-6q-28 0 -48 5q-17 5 -22 17q-3 5 -5 17q-1 6 -1 25v94l-1 101q0 37 -3 56q-3 20 -6 30q-4 14 -6 19q-15 33 -52 52q-44 23 -97 23h-9q-3 0 -12 -1l-9 -1l-28 -7q-34 -11 -52 -21l-64 -36v-67l27 -7l8 21l8 21l10 24q19 13 38 19
q20 5 42 5q124 0 124 -132l-95 -16q-36 -7 -58 -13l-4 -1q-29 -8 -41 -13q-41 -17 -68 -51q-28 -34 -28 -91q0 -21 4 -34q5 -18 11 -28q16 -26 45 -40q27 -13 68 -13q28 0 50 9q11 5 24 12q14 8 24 15q22 15 68 60q0 -35 -5 -87zM327 259v-133q-27 -36 -64 -60
q-34 -21 -70 -21q-35 0 -54 22q-21 23 -21 56q0 39 21 63q23 24 51 37q14 6 34 13q5 1 9 2l27 6zM166 493l-3 -5l-1 -2q0 -4 9 -4q6 0 14 4t15 11l175 157l24 22q9 9 9 14l-1 3q-3 7 -18 7q-32 0 -65 -33l-18 -20z" />
    <glyph glyph-name="acircumflex" unicode="&#xe2;" horiz-adv-x="540" 
d="M322 -4l21 3l27 1l61 -2l60 -2v34h-6q-28 0 -48 5q-17 5 -22 17q-3 5 -5 17q-1 6 -1 25v94l-1 101q0 37 -3 56q-3 20 -6 30q-4 14 -6 19q-15 33 -52 52q-44 23 -97 23h-9q-3 0 -12 -1l-9 -1l-28 -7q-34 -11 -52 -21l-64 -36v-67l27 -7l8 21l8 21l10 24q19 13 38 19
q20 5 42 5q124 0 124 -132l-95 -16q-36 -7 -58 -13l-4 -1q-29 -8 -41 -13q-41 -17 -68 -51q-28 -34 -28 -91q0 -21 4 -34q5 -18 11 -28q16 -26 45 -40q27 -13 68 -13q28 0 50 9q11 5 24 12q14 8 24 15q22 15 68 60q0 -35 -5 -87zM327 259v-133q-27 -36 -64 -60
q-34 -21 -70 -21q-35 0 -54 22q-21 23 -21 56q0 39 21 63q23 24 51 37q14 6 34 13q5 1 9 2l27 6zM86 520l168 154l166 -154h51l-193 184h-49l-193 -184h50z" />
    <glyph glyph-name="atilde" unicode="&#xe3;" horiz-adv-x="523" 
d="M322 -4l21 3l27 1l61 -2l60 -2v34h-6q-28 0 -48 5q-17 5 -22 17q-3 5 -5 17q-1 6 -1 25v94l-1 101q0 37 -3 56q-3 20 -6 30q-4 14 -6 19q-15 33 -52 52q-44 23 -97 23h-9q-3 0 -12 -1l-9 -1l-28 -7q-34 -11 -52 -21l-64 -36v-67l27 -7l8 21l8 21l10 24q19 13 38 19
q20 5 42 5q124 0 124 -132l-95 -16q-36 -7 -58 -13l-4 -1q-29 -8 -41 -13q-41 -17 -68 -51q-28 -34 -28 -91q0 -21 4 -34q5 -18 11 -28q16 -26 45 -40q27 -13 68 -13q28 0 50 9q11 5 24 12q14 8 24 15q22 15 68 60q0 -35 -5 -87zM327 259v-133q-27 -36 -64 -60
q-34 -21 -70 -21q-35 0 -54 22q-21 23 -21 56q0 39 21 63q23 24 51 37q14 6 34 13q5 1 9 2l27 6zM420 704q-40 -90 -87 -90q-16 0 -34 9l-28 14l-22 13q-8 5 -21 11q-1 1 -10 6q-13 8 -24 12q-11 6 -23 8q-10 2 -22 2q-34 0 -60 -26q-25 -26 -57 -92l30 -42q17 40 30 59
q14 21 27 30q14 9 30 9q24 0 45 -10q22 -11 49 -28q13 -9 27 -16q11 -6 22 -11q21 -10 43 -10q32 0 60 27q29 26 54 84z" />
    <glyph glyph-name="adieresis" unicode="&#xe4;" horiz-adv-x="516" 
d="M322 -4l21 3l27 1l61 -2l60 -2v34h-6q-28 0 -48 5q-17 5 -22 17q-3 5 -5 17q-1 6 -1 25v94l-1 101q0 37 -3 56q-3 20 -6 30q-4 14 -6 19q-15 33 -52 52q-44 23 -97 23h-9q-3 0 -12 -1l-9 -1l-28 -7q-34 -11 -52 -21l-64 -36v-67l27 -7l8 21l8 21l10 24q19 13 38 19
q20 5 42 5q124 0 124 -132l-95 -16q-36 -7 -58 -13l-4 -1q-29 -8 -41 -13q-41 -17 -68 -51q-28 -34 -28 -91q0 -21 4 -34q5 -18 11 -28q16 -26 45 -40q27 -13 68 -13q28 0 50 9q11 5 24 12q14 8 24 15q22 15 68 60q0 -35 -5 -87zM327 259v-133q-27 -36 -64 -60
q-34 -21 -70 -21q-35 0 -54 22q-21 23 -21 56q0 39 21 63q23 24 51 37q14 6 34 13q5 1 9 2l27 6zM137 704q-24 0 -40 -16q-17 -18 -17 -41t17 -40t40 -17q22 0 40 17q17 17 17 40q0 15 -7 28q-8 15 -21 22t-29 7zM341 704q-25 0 -41 -16q-16 -17 -16 -41q0 -23 17 -40
t40 -17q22 0 39 17q18 17 18 40q0 14 -8 28q-8 15 -21 22t-28 7z" />
    <glyph glyph-name="aring" unicode="&#xe5;" horiz-adv-x="524" 
d="M322 -4l21 3l27 1l61 -2l60 -2v34h-6q-28 0 -48 5q-17 5 -22 17q-3 5 -5 17q-1 6 -1 25v94l-1 101q0 37 -3 56q-3 20 -6 30q-4 14 -6 19q-15 33 -52 52q-44 23 -97 23h-9q-3 0 -12 -1l-9 -1l-28 -7q-34 -11 -52 -21l-64 -36v-67l27 -7l8 21l8 21l10 24q19 13 38 19
q20 5 42 5q124 0 124 -132l-95 -16q-36 -7 -58 -13l-4 -1q-29 -8 -41 -13q-41 -17 -68 -51q-28 -34 -28 -91q0 -21 4 -34q5 -18 11 -28q16 -26 45 -40q27 -13 68 -13q28 0 50 9q11 5 24 12q14 8 24 15q22 15 68 60q0 -35 -5 -87zM327 259v-133q-27 -36 -64 -60
q-34 -21 -70 -21q-35 0 -54 22q-21 23 -21 56q0 39 21 63q23 24 51 37q14 6 34 13q5 1 9 2l27 6zM89 631q0 -18 17 -34q16 -14 47 -22q28 -7 70 -7q41 0 78 8q34 9 52 24q18 17 18 36t-17 34t-46 22q-32 8 -71 8q-44 0 -79 -9q-36 -9 -52 -24q-17 -17 -17 -36zM143 642
q0 16 10 26q12 12 28 17q18 5 43 5q24 0 39 -4t30 -13q12 -9 18 -21q5 -15 5 -27q0 -22 -21 -36q-10 -6 -24 -9q-16 -3 -35 -3q-28 0 -49 7q-24 11 -33 23q-11 14 -11 35z" />
    <glyph glyph-name="ae" unicode="&#xe6;" horiz-adv-x="824" 
d="M594 -13q42 0 84 12q41 11 82 35l8 20l8 21l-8 7q-64 -45 -133 -45q-54 0 -93 24q-40 23 -60 66q-12 25 -16 49q-5 28 -5 57h122l73 1l59 2l37 4l38 7v26q0 59 -22 103q-22 45 -65 70q-43 23 -97 23h-10q-3 0 -15 -1l-6 -1l-33 -8q-40 -12 -65 -26q-30 -17 -50 -39
q-16 -16 -25 -33q-3 17 -8 33q-14 32 -53 52q-44 23 -97 23h-9q-3 0 -12 -1l-9 -1l-28 -7q-34 -11 -52 -21l-64 -36v-67l27 -7l8 21l8 21l10 24q19 13 38 19q20 5 42 5q124 0 124 -132l-95 -16q-36 -7 -58 -13l-4 -1q-29 -8 -41 -13q-41 -17 -68 -51q-28 -34 -28 -91
q0 -21 4 -34q5 -18 11 -28q16 -26 45 -40q27 -13 68 -13q28 0 50 9q22 8 48 26q27 20 68 61q18 -23 80 -60q63 -36 187 -36zM327 259v-133q-27 -36 -64 -60q-34 -21 -70 -21q-35 0 -54 22q-21 23 -21 56q0 39 21 63q23 24 51 37q14 6 34 13q5 1 9 2l27 6zM462 270q0 31 4 52
q6 28 11 41q15 35 43 54q29 17 71 17q65 0 87 -46q22 -45 22 -118q-21 -4 -71 -4l-90 2z" />
    <glyph glyph-name="ccedilla" unicode="&#xe7;" horiz-adv-x="496" 
d="M221 -84l4 -7q62 0 62 -54q0 -56 -88 -56v-26q21 -3 44 -3q42 0 81 19q41 20 41 69q0 43 -27 63q-27 19 -62 24l26 45q35 4 70 19q35 16 63 47q26 31 38 76l-29 14q-26 -56 -58 -81t-86 -25q-80 0 -113 65q-34 64 -34 153q0 105 36 157q37 52 92 52q63 0 94 -87
q9 -26 31 -26q21 0 40 13q20 14 20 38t-22 47q-23 23 -61 36q-21 8 -42 11q-22 3 -49 3q-85 0 -141 -36q-55 -36 -79 -96q-23 -61 -23 -130q0 -118 55 -182q29 -34 69 -50q39 -18 88 -18z" />
    <glyph glyph-name="egrave" unicode="&#xe8;" horiz-adv-x="492" 
d="M121 233h122l73 1l59 2l37 4l38 7v26q0 59 -22 103q-22 45 -65 70q-43 23 -97 23h-10q-3 0 -12 -1l-9 -1l-33 -8q-40 -12 -65 -26q-30 -17 -50 -39q-26 -26 -43 -72q-16 -45 -16 -103q0 -71 28 -123q29 -54 79 -81q49 -28 119 -28q83 0 166 47l8 20l8 21l-8 7
q-64 -45 -133 -45q-54 0 -93 24q-40 23 -60 66q-12 25 -16 49q-5 28 -5 57zM122 270q0 31 4 52q6 28 11 41q15 35 43 54q29 17 71 17q65 0 87 -46q22 -45 22 -118q-21 -4 -71 -4l-90 2zM314 536h33l-144 138q-15 17 -25 21q-8 5 -19 5q-14 0 -23 -10q-9 -9 -9 -20t11 -24
q18 -16 45 -31z" />
    <glyph glyph-name="eacute" unicode="&#xe9;" horiz-adv-x="488" 
d="M121 233h122l73 1l59 2l37 4l38 7v26q0 59 -22 103q-22 45 -65 70q-43 23 -97 23h-10q-3 0 -12 -1l-9 -1l-33 -8q-40 -12 -65 -26q-30 -17 -50 -39q-26 -26 -43 -72q-16 -45 -16 -103q0 -71 28 -123q29 -54 79 -81q49 -28 119 -28q83 0 166 47l8 20l8 21l-8 7
q-64 -45 -133 -45q-54 0 -93 24q-40 23 -60 66q-12 25 -16 49q-5 28 -5 57zM122 270q0 31 4 52q6 28 11 41q15 35 43 54q29 17 71 17q65 0 87 -46q22 -45 22 -118q-21 -4 -71 -4l-90 2zM158 497l-3 -5l-1 -2q0 -4 9 -4q6 0 14 4q5 2 14 9l1 1l175 158l24 22q9 8 9 14l-1 3
q-3 7 -18 7q-32 0 -65 -33l-18 -20z" />
    <glyph glyph-name="ecircumflex" unicode="&#xea;" horiz-adv-x="484" 
d="M121 233h122l73 1l59 2l37 4l38 7v26q0 59 -22 103q-22 45 -65 70q-43 23 -97 23h-10q-3 0 -12 -1l-9 -1l-33 -8q-40 -12 -65 -26q-30 -17 -50 -39q-26 -26 -43 -72q-16 -45 -16 -103q0 -71 28 -123q29 -54 79 -81q49 -28 119 -28q83 0 166 47l8 20l8 21l-8 7
q-64 -45 -133 -45q-54 0 -93 24q-40 23 -60 66q-12 25 -16 49q-5 28 -5 57zM122 270q0 31 4 52q6 28 11 41q15 35 43 54q29 17 71 17q65 0 87 -46q22 -45 22 -118q-21 -4 -71 -4l-90 2zM122 526l133 148l132 -148h39l-152 178h-39l-152 -178h39z" />
    <glyph glyph-name="edieresis" unicode="&#xeb;" horiz-adv-x="496" 
d="M121 233h122l73 1l59 2l37 4l38 7v26q0 59 -22 103q-22 45 -65 70q-43 23 -97 23h-10q-3 0 -12 -1l-9 -1l-33 -8q-40 -12 -65 -26q-30 -17 -50 -39q-26 -26 -43 -72q-16 -45 -16 -103q0 -71 28 -123q29 -54 79 -81q49 -28 119 -28q83 0 166 47l8 20l8 21l-8 7
q-64 -45 -133 -45q-54 0 -93 24q-40 23 -60 66q-12 25 -16 49q-5 28 -5 57zM122 270q0 31 4 52q6 28 11 41q15 35 43 54q29 17 71 17q65 0 87 -46q22 -45 22 -118q-21 -4 -71 -4l-90 2zM129 704q-25 0 -41 -16q-16 -17 -16 -41q0 -23 17 -40t40 -17q22 0 39 17q18 17 18 40
q0 14 -8 28q-8 15 -21 22t-28 7zM329 704q-24 0 -40 -16q-17 -18 -17 -41t17 -40t40 -17q22 0 40 17q17 17 17 40q0 14 -8 28q-8 15 -21 22t-28 7z" />
    <glyph glyph-name="igrave" unicode="&#xec;" horiz-adv-x="332" 
d="M214 448q-9 13 -24 13l-12 -3l-7 -3q-16 -6 -25 -9q-7 -3 -13 -3q-3 -1 -6 -1t-6 -1l-32 -6l-48 -7v-30q82 0 82 -64v-240q0 -38 -29 -52q-28 -12 -53 -12v-34h246v34q-26 0 -41 4q-19 7 -25 13q-18 17 -18 35l1 8l1 4v221q0 35 3 69zM214 540h33l-144 138q-17 17 -25 21
q-8 5 -19 5q-16 0 -23 -9q-9 -9 -9 -21q0 -11 11 -24q13 -12 45 -31z" />
    <glyph glyph-name="iacute" unicode="&#xed;" horiz-adv-x="288" 
d="M198 448q-10 13 -24 13l-12 -3l-7 -3q-16 -6 -25 -9q-7 -3 -13 -3q-1 0 -6 -1q-4 0 -7 -1l-31 -6l-48 -7v-30q82 0 82 -64v-240q0 -38 -29 -52q-28 -12 -53 -12v-34h246v34q-26 0 -41 4q-18 6 -25 13q-18 17 -18 35l1 8l1 4v221q0 35 3 69zM18 497l-3 -5l-1 -2q0 -4 9 -4
q6 0 14 4q5 2 14 9l1 1l175 158l24 22q9 8 9 14l-1 3q-3 7 -18 7q-32 0 -65 -33l-18 -20z" />
    <glyph glyph-name="icircumflex" unicode="&#xee;" horiz-adv-x="329" 
d="M234 448q-9 13 -24 13l-12 -3l-7 -3q-15 -6 -24 -9t-14 -3q-3 -1 -6 -1t-6 -1l-32 -6l-48 -7v-30q82 0 82 -64v-240q0 -38 -29 -52q-28 -12 -53 -12v-34h246v34q-26 0 -41 4q-19 7 -25 13q-18 17 -18 35l1 8l1 4v221q0 35 3 69zM44 518l122 155l120 -155h36l-139 186h-35
l-140 -186h36z" />
    <glyph glyph-name="idieresis" unicode="&#xef;" horiz-adv-x="344" 
d="M238 452q-9 13 -24 13l-12 -3l-7 -3q-16 -6 -25 -9q-7 -3 -13 -3q-3 -1 -6 -1t-6 -1l-32 -6l-48 -7v-30q82 0 82 -64v-240q0 -38 -29 -52q-28 -12 -53 -12v-34h246v34q-26 0 -41 4q-18 6 -25 13q-18 17 -18 34l1 9l1 4v221q0 35 3 69zM73 704q-24 0 -40 -16
q-17 -18 -17 -41t17 -40t40 -17q22 0 40 17q17 17 17 40q0 15 -7 28q-8 15 -21 22t-29 7zM257 704q-25 0 -41 -16q-16 -17 -16 -41q0 -23 17 -40t40 -17q22 0 39 17q18 17 18 40q0 14 -8 28q-8 15 -21 22t-28 7z" />
    <glyph glyph-name="eth" unicode="&#xf0;" horiz-adv-x="529" 
d="M409 636l-23 34l-120 -57q-50 42 -119 85l-40 -16v-9l57 -45l46 -40l-112 -51l23 -34l119 56q43 -43 77 -90l-2 -3q-33 6 -47 6q-73 0 -123 -29q-51 -28 -75 -83q-25 -51 -25 -130q0 -52 14 -100q13 -45 42 -77q28 -33 69 -49q39 -16 93 -16q111 0 166 63q55 62 55 189
v20q-2 11 -3 31q-1 14 -6 40q0 1 -1 4q-5 19 -14 45q-8 21 -18 38q-24 42 -55 81q-34 42 -87 87zM140 230q0 209 123 209q26 0 45 -6q22 -8 32 -16q27 -21 38 -67q6 -24 9 -53q2 -38 2 -67q0 -99 -29 -154q-28 -55 -97 -55q-66 0 -94 55q-29 55 -29 154z" />
    <glyph glyph-name="ntilde" unicode="&#xf1;" horiz-adv-x="620" 
d="M179 376l8 72v2q0 15 -10 15l-10 -2l-13 -4l-10 -4q-24 -10 -49 -14q-20 -5 -81 -13v-30h20q30 0 41 -4q13 -5 17 -18q4 -12 4 -42v-240q0 -29 -8 -43t-25 -17q-15 -4 -49 -4v-34l123 4l62 -2l61 -2v34q-32 0 -49 3q-17 5 -24 17q-9 14 -9 44v130q0 90 7 111q8 22 25 38
q18 17 43 24q11 6 26 8q3 1 6 1q7 1 9 1h12q31 0 58 -13t40 -34q10 -14 13 -37q3 -19 3 -78v-154l-2 -47l-3 -48l22 3l26 1l61 -2l60 -2v34h-6q-29 0 -47 5q-18 4 -24 17q-2 5 -4 17q-1 6 -1 25v188q0 55 -6 83q-6 29 -21 48q-17 20 -34 30q-23 15 -45 19q-14 5 -26 6
q-9 1 -27 1q-31 0 -51 -7q-23 -8 -39 -20q-18 -12 -38 -32zM505 704q-49 -90 -108 -90q-18 0 -42 8l-27 11l-35 16q-5 3 -16 9q-1 0 -5 2q-4 3 -13 6l-3 1q-9 5 -16 6l-15 6q-29 10 -55 10q-21 0 -41 -6q-20 -8 -33 -20q-33 -27 -71 -92l36 -42q24 40 39 59q17 21 33 30
q17 9 37 9q29 0 55 -10l28 -12l34 -18l32 -15l29 -11q27 -9 52 -9q39 0 73 27q33 26 68 84z" />
    <glyph glyph-name="ograve" unicode="&#xf2;" horiz-adv-x="548" 
d="M35 218q0 -70 29 -123q28 -52 79 -81q50 -27 118 -27q76 0 132 31q57 32 87 88q31 56 31 132q0 70 -28 122q-27 53 -78 81q-50 28 -120 28q-77 0 -132 -31q-57 -32 -87 -88q-31 -56 -31 -132zM127 259q0 32 4 52q5 25 12 43q15 39 47 60q32 20 72 20q37 0 66 -17
q31 -18 49 -47q21 -32 32 -73q10 -40 10 -100q0 -82 -36 -129q-36 -46 -99 -46q-49 0 -84 29q-36 29 -54 81q-6 16 -9 28q-3 14 -6 30q-4 28 -4 69zM354 540h33l-144 138q-15 17 -25 21q-8 5 -19 5q-14 0 -23 -9t-9 -21q0 -11 11 -24q13 -12 45 -31z" />
    <glyph glyph-name="oacute" unicode="&#xf3;" horiz-adv-x="540" 
d="M35 218q0 -70 29 -123q28 -52 79 -81q50 -27 118 -27q76 0 132 31q57 32 87 88q31 56 31 132q0 70 -28 122q-27 53 -78 81q-50 28 -120 28q-77 0 -132 -31q-57 -32 -87 -88q-31 -56 -31 -132zM127 259q0 32 4 52q5 25 12 43q15 39 47 60q32 20 72 20q37 0 66 -17
q31 -18 49 -47q21 -32 32 -73q10 -40 10 -100q0 -82 -36 -129q-36 -46 -99 -46q-49 0 -84 29q-36 29 -54 81q-6 16 -9 28q-3 14 -6 30q-4 28 -4 69zM166 497l-3 -5l-1 -2q0 -4 9 -4q6 0 14 4q5 2 14 9l1 1l175 158l24 22q9 8 9 14l-1 3q-3 7 -18 7q-32 0 -65 -33l-18 -20z
" />
    <glyph glyph-name="ocircumflex" unicode="&#xf4;" horiz-adv-x="552" 
d="M35 218q0 -70 29 -123q28 -52 79 -81q50 -27 118 -27q76 0 132 31q57 32 87 88q31 56 31 132q0 70 -28 122q-27 53 -78 81q-50 28 -120 28q-77 0 -132 -31q-57 -32 -87 -88q-31 -56 -31 -132zM127 259q0 32 4 52q5 25 12 43q15 39 47 60q32 20 72 20q37 0 66 -17
q31 -18 49 -47q21 -32 32 -73q10 -40 10 -100q0 -82 -36 -129q-36 -46 -99 -46q-49 0 -84 29q-36 29 -54 81q-6 16 -9 28q-3 14 -6 30q-4 28 -4 69zM139 511l148 161l147 -161h45l-171 193h-42l-171 -193h44z" />
    <glyph glyph-name="otilde" unicode="&#xf5;" horiz-adv-x="547" 
d="M35 218q0 -70 29 -123q28 -52 79 -81q50 -27 118 -27q76 0 132 31q57 32 87 88q31 56 31 132q0 70 -28 122q-27 53 -78 81q-50 28 -120 28q-77 0 -132 -31q-57 -32 -87 -88q-31 -56 -31 -132zM127 259q0 32 4 52q5 25 12 43q15 39 47 60q32 20 72 20q37 0 66 -17
q31 -18 49 -47q21 -32 32 -73q10 -40 10 -100q0 -82 -36 -129q-36 -46 -99 -46q-49 0 -84 29q-36 29 -54 81q-6 16 -9 28q-3 14 -6 30q-4 28 -4 69zM444 704q-39 -90 -86 -90q-14 0 -32 9l-22 11l-28 16q-25 16 -54 29q-21 10 -44 10q-33 0 -59 -26q-23 -24 -56 -92l29 -42
q18 39 30 60q13 19 26 29q14 9 30 9q9 0 23 -2q6 -1 15 -6l5 -2q16 -7 50 -29q28 -18 48 -26q20 -10 42 -10q14 0 30 8q16 6 27 19q28 28 55 84z" />
    <glyph glyph-name="odieresis" unicode="&#xf6;" horiz-adv-x="536" 
d="M27 218q0 -70 29 -123q28 -52 79 -81q50 -27 118 -27q77 0 132 31q57 31 88 88q30 57 30 132q0 70 -27 122q-29 53 -79 81t-120 28q-76 0 -132 -31q-57 -32 -87 -88q-31 -56 -31 -132zM119 259q0 32 4 52q5 25 12 43q15 39 47 60q32 20 72 20q37 0 66 -17q30 -18 50 -47
q21 -34 31 -73q10 -40 10 -100q0 -82 -36 -129q-36 -46 -99 -46q-47 0 -84 29q-36 29 -54 81q-6 16 -9 28q-4 17 -5 30q-5 35 -5 69zM153 704q-24 0 -40 -16q-17 -18 -17 -41t17 -40t40 -17q22 0 40 17q17 17 17 40q0 15 -7 28q-8 15 -21 22t-29 7zM373 704q-24 0 -40 -16
q-17 -18 -17 -41t17 -40t40 -17q22 0 40 17q17 17 17 40q0 14 -8 28q-8 15 -21 22t-28 7z" />
    <glyph glyph-name="divide" unicode="&#xf7;" horiz-adv-x="570" 
d="M285 356q24 0 41 17q16 19 16 43q0 22 -17 40q-16 18 -40 18q-25 0 -42 -17q-18 -18 -18 -41q0 -26 17 -43t43 -17zM285 26q24 0 41 17q16 19 16 43q0 23 -17 40q-16 18 -40 18q-23 0 -42 -17q-18 -16 -18 -41q0 -26 17 -43t43 -17zM43 222h484v57h-484v-57z" />
    <glyph glyph-name="oslash" unicode="&#xf8;" horiz-adv-x="548" 
d="M311 468q-3 1 -14 1h-12q-77 0 -132 -31q-57 -32 -87 -88q-31 -56 -31 -132q0 -69 29 -122q29 -52 78 -81q14 -8 32 -15l-34 -119h67l31 106h23q76 0 132 31q57 32 87 88q31 56 31 132q0 70 -28 123q-29 55 -78 80q-14 9 -31 14l43 148h-67zM250 26l107 370
q12 -10 20 -25q22 -34 32 -75q10 -40 10 -99q0 -82 -36 -129q-36 -46 -99 -46q-13 0 -18 1q-3 1 -8 2q-5 0 -8 1zM299 430l-108 -372q-30 28 -45 74q-19 54 -19 127q0 32 4 52q5 25 12 43q15 39 47 60q32 20 72 20q22 0 37 -4z" />
    <glyph glyph-name="ugrave" unicode="&#xf9;" horiz-adv-x="608" 
d="M415 84q0 -4 -3 -51q-2 -26 -2 -37l21 3l27 1l61 -2l60 -2v34h-6q-19 0 -28 1q-6 1 -16 3q-1 0 -5 1q-16 4 -22 17q-2 5 -4 17q-1 6 -1 25v221l2 54l7 79v2q0 15 -10 15l-9 -2l-14 -5l-10 -3q-27 -10 -49 -14q-20 -5 -81 -13v-30h20q30 0 41 -4q13 -5 17 -18q4 -12 4 -42
v-149l-1 -24l-4 -25q-12 -34 -53 -63q-40 -28 -80 -28q-46 0 -71 28q-25 27 -25 76v166l2 54l7 79v2q0 15 -10 15l-9 -2l-14 -5l-10 -3q-24 -10 -49 -14q-20 -5 -81 -13v-30h20q30 0 41 -4q13 -5 17 -18q4 -12 4 -42v-194l2 -38l3 -28q6 -23 22 -42q38 -45 109 -45
q59 0 98 24q34 21 82 73zM366 540h33l-144 138q-15 17 -25 21q-8 5 -19 5q-14 0 -23 -9t-9 -21q0 -11 11 -24q13 -12 45 -31z" />
    <glyph glyph-name="uacute" unicode="&#xfa;" horiz-adv-x="608" 
d="M415 84q0 -4 -3 -51q-2 -26 -2 -37l21 3l27 1l61 -2l60 -2v34h-6q-19 0 -28 1q-6 1 -16 3q-1 0 -5 1q-16 4 -22 17q-2 5 -4 17q-1 6 -1 25v221l2 54l7 79v2q0 15 -10 15l-9 -2l-14 -5l-10 -3q-27 -10 -49 -14q-20 -5 -81 -13v-30h20q30 0 41 -4q13 -5 17 -18q4 -12 4 -42
v-149l-1 -24l-4 -25q-12 -34 -53 -63q-40 -28 -80 -28q-46 0 -71 28q-25 27 -25 76v166l2 54l7 79v2q0 15 -10 15l-9 -2l-14 -5l-10 -3q-24 -10 -49 -14q-20 -5 -81 -13v-30h20q30 0 41 -4q13 -5 17 -18q4 -12 4 -42v-194l2 -38l3 -28q6 -23 22 -42q38 -45 109 -45
q59 0 98 24q34 21 82 73zM206 497l-3 -5l-1 -2q0 -4 9 -4q6 0 14 4q5 2 14 9l1 1l175 158l24 22q9 8 9 14l-1 3q-3 7 -18 7q-32 0 -65 -33l-18 -20z" />
    <glyph glyph-name="ucircumflex" unicode="&#xfb;" horiz-adv-x="591" 
d="M415 84q0 -4 -3 -51q-2 -26 -2 -37l21 3l27 1l61 -2l60 -2v34h-6q-19 0 -28 1q-6 1 -16 3q-1 0 -5 1q-16 4 -22 17q-2 5 -4 17q-1 6 -1 25v221l2 54l7 79v2q0 15 -10 15l-9 -2l-14 -5l-10 -3q-27 -10 -49 -14q-20 -5 -81 -13v-30h20q30 0 41 -4q13 -5 17 -18q4 -12 4 -42
v-149l-1 -24l-4 -25q-12 -34 -53 -63q-40 -28 -80 -28q-46 0 -71 28q-25 27 -25 76v166l2 54l7 79v2q0 15 -10 15l-9 -2l-14 -5l-10 -3q-24 -10 -49 -14q-20 -5 -81 -13v-30h20q30 0 41 -4q13 -5 17 -18q4 -12 4 -42v-194l2 -38l3 -28q6 -23 22 -42q38 -45 109 -45
q59 0 98 24q34 21 82 73zM127 509l162 163l161 -163h49l-187 195h-46l-187 -195h48z" />
    <glyph glyph-name="udieresis" unicode="&#xfc;" horiz-adv-x="596" 
d="M415 84q0 -4 -3 -51q-2 -26 -2 -37l21 3l27 1l61 -2l60 -2v34h-6q-19 0 -28 1q-6 1 -16 3q-1 0 -5 1q-16 4 -22 17q-2 5 -4 17q-1 6 -1 25v221l2 54l7 79v2q0 15 -10 15l-9 -2l-14 -5l-10 -3q-27 -10 -49 -14q-20 -5 -81 -13v-30h20q30 0 41 -4q13 -5 17 -18q4 -12 4 -42
v-149l-1 -24l-4 -25q-12 -34 -53 -63q-40 -28 -80 -28q-46 0 -71 28q-25 27 -25 76v166l2 54l7 79v2q0 15 -10 15l-9 -2l-14 -5l-10 -3q-24 -10 -49 -14q-20 -5 -81 -13v-30h20q30 0 41 -4q13 -5 17 -18q4 -12 4 -42v-194l2 -38l3 -28q6 -23 22 -42q38 -45 109 -45
q59 0 98 24q34 21 82 73zM125 708q-24 0 -41 -17q-16 -16 -16 -40q0 -23 17 -40t40 -17q22 0 40 17q17 17 17 40q0 14 -8 28q-8 15 -21 22t-28 7zM437 708q-24 0 -41 -17q-16 -16 -16 -40q0 -23 17 -40t40 -17q22 0 40 17q17 17 17 40q0 14 -8 28q-8 15 -21 22t-28 7z" />
    <glyph glyph-name="yacute" unicode="&#xfd;" horiz-adv-x="568" 
d="M25 -265q21 -11 32 -14t29 -3q45 0 77 26q31 25 57 85l62 141l63 150l20 47l22 50l25 54l50 108l6 16q7 12 11 16q7 7 21 10q3 1 7 2q4 0 7 1q5 1 22 1v34l-94 -4l-41 3q-19 0 -28 1h-25v-34h36q33 0 33 -20q0 -27 -43 -129q-54 -128 -83 -191l-57 134q-30 69 -52 136
l-9 22q-8 21 -8 29t8 13q5 3 15 5q3 1 13 1h36v34l-115 -4l-60 3l-56 1v-34h19q24 0 42 -24q17 -22 46 -101l66 -158l66 -170l-23 -61l-13 -32l-14 -28q-17 -32 -37 -51q-23 -20 -45 -20q-14 0 -27 8q-15 9 -26 23h-11zM217 497l-3 -5v-2q0 -4 9 -4q6 0 14 4t14 10l176 158
l24 22q8 8 8 14v3q-3 7 -18 7q-31 0 -66 -33l-18 -20z" />
    <glyph glyph-name="thorn" unicode="&#xfe;" horiz-adv-x="606" 
d="M362 502q-25 0 -51 -8q-19 -6 -42 -16q-14 -8 -42 -26l-35 -22v286l-7 6l-157 -25v-25l38 -4q21 -3 26 -10q6 -7 6 -36v-765q0 -25 -5 -37q-5 -11 -18 -14q-8 -3 -23 -5q-14 -2 -29 -2v-29h259v29l-25 2l-24 3l-5 1q-18 4 -23 7q-8 5 -10 14q-3 9 -3 31v154
q20 -12 49 -16l10 -2l7 -2q4 -1 8 -1q6 -1 8 -1l32 -1q56 0 98 13q47 16 79 45q35 31 55 84q19 51 19 126q0 17 -2 45q-2 13 -6 36l-2 7q-5 22 -12 41q-10 26 -16 39q-39 78 -157 78zM192 321q0 32 13 57q20 36 49 53t70 17q28 0 56 -16q29 -16 52 -60q21 -43 21 -122
q0 -227 -146 -227q-38 0 -67 20t-41 53q-7 21 -7 61v164z" />
    <glyph glyph-name="ydieresis" unicode="&#xff;" horiz-adv-x="584" 
d="M25 -265q21 -11 32 -14t29 -3q45 0 77 26q31 25 57 85l62 141l63 150l20 47l22 50l25 54l50 108l6 16q7 12 11 16q7 7 21 10q3 1 7 2q4 0 7 1q5 1 22 1v34l-94 -4l-41 3q-19 0 -28 1h-25v-34h36q33 0 33 -20q0 -27 -43 -129q-54 -128 -83 -191l-57 134q-30 69 -52 136
l-9 22q-8 21 -8 29t8 13q5 3 15 5q3 1 13 1h36v34l-115 -4l-60 3l-56 1v-34h19q24 0 42 -24q17 -22 46 -101l66 -158l66 -170l-23 -61l-13 -32l-14 -28q-17 -32 -37 -51q-23 -20 -45 -20q-14 0 -27 8q-15 9 -26 23h-11zM149 704q-25 0 -41 -16q-16 -17 -16 -41q0 -23 17 -40
t40 -17q22 0 39 17q18 17 18 40q0 14 -8 28q-8 15 -21 22t-28 7zM409 704q-24 0 -40 -16q-17 -18 -17 -41t17 -40t40 -17q22 0 40 17q17 17 17 40q0 14 -8 28q-9 16 -20 22q-13 7 -29 7z" />
    </font>
</defs>
</svg>
